%TF.GenerationSoftware,Altium Limited,Altium Designer,26.3.0 (6)*%
G04 Layer_Color=8388736*
%FSLAX45Y45*%
%MOMM*%
%TF.SameCoordinates,EE7C521D-C6A3-4BB5-8235-418CAF52182B*%
%TF.FilePolarity,Negative*%
%TF.FileFunction,Soldermask,Top*%
%TF.Part,Single*%
G01*
G75*
%TA.AperFunction,SMDPad,CuDef*%
%ADD10R,2.15900X2.74320*%
%ADD13R,1.49860X3.91160*%
%ADD14R,1.02310X0.35480*%
%ADD16R,0.50720X0.89610*%
%ADD19R,0.76200X1.09220*%
%ADD20R,1.09220X0.76200*%
%ADD22R,1.70180X0.66040*%
%TA.AperFunction,ComponentPad*%
%ADD44C,2.26060*%
%TA.AperFunction,SMDPad,CuDef*%
%ADD72C,1.72720*%
G04:AMPARAMS|DCode=73|XSize=1.3632mm|YSize=1.6732mm|CornerRadius=0.2466mm|HoleSize=0mm|Usage=FLASHONLY|Rotation=90.000|XOffset=0mm|YOffset=0mm|HoleType=Round|Shape=RoundedRectangle|*
%AMROUNDEDRECTD73*
21,1,1.36320,1.18000,0,0,90.0*
21,1,0.87000,1.67320,0,0,90.0*
1,1,0.49320,0.59000,0.43500*
1,1,0.49320,0.59000,-0.43500*
1,1,0.49320,-0.59000,-0.43500*
1,1,0.49320,-0.59000,0.43500*
%
%ADD73ROUNDEDRECTD73*%
%ADD74R,2.18520X0.76280*%
%ADD75R,1.62320X1.12320*%
%ADD76R,1.12320X1.62320*%
%ADD77R,3.70320X2.70320*%
%ADD78R,1.20320X3.70320*%
%ADD79R,1.70320X3.60320*%
%ADD80R,3.70320X1.20320*%
%ADD81R,3.60320X1.70320*%
%ADD82R,1.30320X2.80320*%
%ADD83R,5.90320X5.95320*%
G04:AMPARAMS|DCode=84|XSize=1.3632mm|YSize=1.6732mm|CornerRadius=0.2466mm|HoleSize=0mm|Usage=FLASHONLY|Rotation=0.000|XOffset=0mm|YOffset=0mm|HoleType=Round|Shape=RoundedRectangle|*
%AMROUNDEDRECTD84*
21,1,1.36320,1.18000,0,0,0.0*
21,1,0.87000,1.67320,0,0,0.0*
1,1,0.49320,0.43500,-0.59000*
1,1,0.49320,-0.43500,-0.59000*
1,1,0.49320,-0.43500,0.59000*
1,1,0.49320,0.43500,0.59000*
%
%ADD84ROUNDEDRECTD84*%
%TA.AperFunction,ComponentPad*%
%ADD85C,2.19320*%
%ADD86C,2.30320*%
%ADD87R,2.30320X2.30320*%
%ADD88R,2.60320X2.60320*%
%ADD89R,2.19320X2.19320*%
%ADD90C,1.72720*%
%ADD91R,1.72720X1.72720*%
%ADD92C,1.00240*%
%ADD93R,1.00240X1.00240*%
%ADD94R,2.30320X2.30320*%
%ADD95C,2.60320*%
%TA.AperFunction,ViaPad*%
%ADD96C,4.01320*%
%ADD97C,0.91440*%
D10*
X7787640Y3556000D02*
D03*
X7452360D02*
D03*
X7025640Y2984500D02*
D03*
X6690360D02*
D03*
D13*
X4699000Y1616710D02*
D03*
Y2447290D02*
D03*
X5905500Y1616710D02*
D03*
Y2447290D02*
D03*
X3429000Y1616710D02*
D03*
Y2447290D02*
D03*
X2222500Y1616710D02*
D03*
Y2447290D02*
D03*
D14*
X1518565Y6701500D02*
D03*
Y6636500D02*
D03*
Y6571500D02*
D03*
Y6506500D02*
D03*
X1910435D02*
D03*
Y6571500D02*
D03*
Y6636500D02*
D03*
Y6701500D02*
D03*
D16*
X6636000Y6410605D02*
D03*
X6731000D02*
D03*
X6826000D02*
D03*
Y6670395D02*
D03*
X6731000D02*
D03*
X6636000D02*
D03*
D19*
X547370Y5397500D02*
D03*
X722630D02*
D03*
X7468870Y6286500D02*
D03*
X7644130D02*
D03*
D20*
X5651500Y7214870D02*
D03*
Y7390130D02*
D03*
D22*
X695570Y6220000D02*
D03*
Y6095000D02*
D03*
Y5970000D02*
D03*
Y5845000D02*
D03*
D44*
X3223500Y762000D02*
D03*
X3619500D02*
D03*
X2032000D02*
D03*
X2428000D02*
D03*
D72*
X4292600Y152400D02*
D03*
X5105400D02*
D03*
X6731000Y4318000D02*
D03*
X3098800Y152400D02*
D03*
X5080000Y2730500D02*
D03*
X2540000D02*
D03*
X6286500D02*
D03*
X3810000D02*
D03*
X5257800Y7315200D02*
D03*
X1854200Y7391400D02*
D03*
X2717800D02*
D03*
X6731000Y4521200D02*
D03*
X6400800Y152400D02*
D03*
X5562600D02*
D03*
X3733800D02*
D03*
X254000Y5435600D02*
D03*
X2590800Y152400D02*
D03*
X1879600D02*
D03*
D73*
X4064000Y1103500D02*
D03*
X5905500Y4294000D02*
D03*
Y4469000D02*
D03*
X952500Y6461500D02*
D03*
Y6286500D02*
D03*
X1206500D02*
D03*
Y6461500D02*
D03*
X6350000Y5294500D02*
D03*
Y5119500D02*
D03*
X4064000Y928500D02*
D03*
X5334000Y865000D02*
D03*
Y1040000D02*
D03*
X4064000Y468500D02*
D03*
Y293500D02*
D03*
X2844800Y1157100D02*
D03*
Y1332100D02*
D03*
X1587500Y5413000D02*
D03*
Y5588000D02*
D03*
X1282700Y5413000D02*
D03*
Y5588000D02*
D03*
D74*
X2141220Y5778500D02*
D03*
Y5905500D02*
D03*
Y6032500D02*
D03*
Y6159500D02*
D03*
X1668780D02*
D03*
Y6032500D02*
D03*
Y5905500D02*
D03*
Y5778500D02*
D03*
D75*
X5524500Y4481500D02*
D03*
Y4281500D02*
D03*
X6032500Y5107000D02*
D03*
Y5307000D02*
D03*
X6286500Y7402500D02*
D03*
Y7202500D02*
D03*
D76*
X2440000Y6350000D02*
D03*
X2640000D02*
D03*
X5337200Y4953000D02*
D03*
X5537200D02*
D03*
X5337200Y5270500D02*
D03*
X5537200D02*
D03*
X535000Y4978400D02*
D03*
X735000D02*
D03*
X7456500Y6667500D02*
D03*
X7656500D02*
D03*
D77*
X5867000Y6127000D02*
D03*
Y6827000D02*
D03*
D78*
X3456000Y6710000D02*
D03*
X3256000D02*
D03*
X3656000D02*
D03*
X3856000D02*
D03*
D79*
X3021000Y7265000D02*
D03*
X4091000D02*
D03*
D80*
X7108500Y4527500D02*
D03*
Y4327500D02*
D03*
D81*
X7683500Y4762500D02*
D03*
Y4092500D02*
D03*
D82*
X735500Y4341000D02*
D03*
X278000Y4336000D02*
D03*
X1548300Y3629800D02*
D03*
X1090800Y3624800D02*
D03*
D83*
X508000Y3556000D02*
D03*
X1320800Y2844800D02*
D03*
D84*
X3278000Y4826000D02*
D03*
X3453000D02*
D03*
X3302000Y4445000D02*
D03*
X3477000D02*
D03*
X2365000Y6604000D02*
D03*
X2540000D02*
D03*
X3278000Y5842000D02*
D03*
X3453000D02*
D03*
X3278000Y5473700D02*
D03*
X3453000D02*
D03*
X6643500Y6096000D02*
D03*
X6818500D02*
D03*
X2627500Y6032500D02*
D03*
X2452500D02*
D03*
X2373500Y5524500D02*
D03*
X2198500D02*
D03*
X6604000Y6921500D02*
D03*
X6779000D02*
D03*
D85*
X5842000Y3238500D02*
D03*
X5588000D02*
D03*
X4381500D02*
D03*
X4635500D02*
D03*
X3175000D02*
D03*
X3429000D02*
D03*
X1968500D02*
D03*
X2222500D02*
D03*
D86*
X4508500Y1079500D02*
D03*
X5778500D02*
D03*
X4889500Y6604000D02*
D03*
X7112000Y5270500D02*
D03*
D87*
X4889500Y1079500D02*
D03*
X6159500D02*
D03*
X4508500Y6604000D02*
D03*
D88*
X7790000Y2578500D02*
D03*
X7450000D02*
D03*
X6688000Y1880000D02*
D03*
X7028000D02*
D03*
X338000Y2578500D02*
D03*
X678000D02*
D03*
X1100000Y1880000D02*
D03*
X1440000D02*
D03*
D89*
X6096000Y3238500D02*
D03*
X4889500D02*
D03*
X3683000D02*
D03*
X2476500D02*
D03*
D90*
X3853000Y4381500D02*
D03*
Y4635500D02*
D03*
Y4889500D02*
D03*
X4953000Y4635500D02*
D03*
Y4381500D02*
D03*
X3853000Y5461000D02*
D03*
Y5715000D02*
D03*
Y5969000D02*
D03*
X4953000Y5715000D02*
D03*
Y5461000D02*
D03*
D91*
Y4889500D02*
D03*
Y5969000D02*
D03*
D92*
X2224500Y7239000D02*
D03*
D93*
X2349500D02*
D03*
D94*
X7112000Y5651500D02*
D03*
D95*
X7790000Y1231500D02*
D03*
X7450000D02*
D03*
X7028000Y533000D02*
D03*
X6688000D02*
D03*
X678000Y1231500D02*
D03*
X338000D02*
D03*
X1440000Y533000D02*
D03*
X1100000D02*
D03*
D96*
X444500Y444500D02*
D03*
Y7175500D02*
D03*
X7683500Y444500D02*
D03*
Y7175500D02*
D03*
D97*
X5334000Y1270000D02*
D03*
X5791200Y5270500D02*
D03*
Y4953000D02*
D03*
X3073400Y6121400D02*
D03*
X5334000Y635000D02*
D03*
X3365500Y6350000D02*
D03*
X3683000D02*
D03*
X4127500D02*
D03*
X3937000D02*
D03*
X2844800Y927100D02*
D03*
X3238500Y4635500D02*
D03*
X2794000Y3759200D02*
D03*
X4013200D02*
D03*
X5181600D02*
D03*
X6324600D02*
D03*
X6515100Y7213600D02*
D03*
X952500Y6096000D02*
D03*
X4064000Y787400D02*
D03*
X3098800Y4826000D02*
D03*
X5905500Y4127500D02*
D03*
X6667500Y5842000D02*
D03*
X2794000Y6045200D02*
D03*
X2755900Y6654800D02*
D03*
X952500Y6667500D02*
D03*
X6096000Y5588000D02*
D03*
X6985000Y6985000D02*
D03*
X1206500Y6096000D02*
D03*
X5334000Y5588000D02*
D03*
X3275200Y5245100D02*
D03*
X5715000Y5588000D02*
D03*
X2819400Y6350000D02*
D03*
X1587500Y6921500D02*
D03*
X7175500Y6540500D02*
D03*
X6375400Y5588000D02*
D03*
X2565400Y5537200D02*
D03*
X1282700Y5207000D02*
D03*
X317500Y4914900D02*
D03*
X3073400Y6350000D02*
D03*
X4064000Y609600D02*
D03*
X1587500Y5207000D02*
D03*
X7289800Y6324600D02*
D03*
X6375400Y6299200D02*
D03*
X7048500Y6350000D02*
D03*
X2171700Y6654800D02*
D03*
X5334000Y6223000D02*
D03*
X2565400Y5765800D02*
D03*
X5270500Y6921500D02*
D03*
X508000Y6667500D02*
D03*
X1206500D02*
D03*
X1841500Y5588000D02*
D03*
X317500Y5207000D02*
D03*
%TF.MD5,f291212c9811293ceb84d4b5c2019ab2*%
M02*
