M48
;Layer_Color=9474304
;FILE_FORMAT=4:4
METRIC,LZ
;TYPE=PLATED
T01F00S00C0.2540
T02F00S00C0.5000
T03F00S00C0.7620
T04F00S00C1.3900
T05F00S00C1.4000
T06F00S00C1.6000
T07F00S00C1.7526
T08F00S00C3.1750
%
T01
X0028448Y0009271
X004064Y0007874
Y0006096
X005334Y000635
Y00127
X0059055Y0041275
X0063246Y0037592
X0057912Y004953
Y0052705
X0051816Y0037592
X0040132
X002794
X0032385Y0046355
X0030988Y004826
X0032752Y0052451
X0015875Y005207
X0012827
X0003175
Y0049149
X0009525Y006096
X0012065
Y0066675
X0009525
X000508
X0015875Y0069215
X0021717Y0066548
X0027559
X0028194Y00635
X0030734
Y0061214
X002794Y0060452
X0025654Y0057658
Y0055372
X0018415Y005588
X0033655Y00635
X003683
X003937
X0041275
X005334Y006223
Y005588
X0052705Y0069215
X0065151Y0072136
X006985Y006985
X0071755Y0065405
X0070485Y00635
X0072898Y0063246
X0063754Y0062992
Y005588
X006096
X005715
X0066675Y005842
T02
X0022245Y007239
X0023495
T03
X003853Y0043815
Y0046355
Y0048895
X004953
Y0046355
Y0043815
Y005461
Y005715
Y005969
X003853
Y005715
Y005461
T04
X005588Y0032385
X005842
X006096
X0048895
X0046355
X0043815
X003683
X003429
X003175
X0024765
X0022225
X0019685
T05
X0045085Y0010795
X0048895
X0057785
X0061595
X007112Y0052705
X0048895Y006604
X0045085
X007112Y0056515
T06
X000338Y0012315
X000678
X0011Y000533
X00144
X006688
X007028
X00745Y0012315
X00779
Y0025785
X00745
X007028Y00188
X006688
X00144
X0011
X000678Y0025785
X000338
T07
X002032Y000762
X002428
X0032235
X0036195
T08
X0004445Y0004445
X0076835
X0004445Y0071755
X0076835
M30
