%TF.GenerationSoftware,Altium Limited,Altium Designer,26.3.0 (6)*%
G04 Layer_Color=8421504*
%FSLAX45Y45*%
%MOMM*%
%TF.SameCoordinates,EE7C521D-C6A3-4BB5-8235-418CAF52182B*%
%TF.FilePolarity,Positive*%
%TF.FileFunction,Paste,Top*%
%TF.Part,Single*%
G01*
G75*
%TA.AperFunction,SMDPad,CuDef*%
%ADD10R,2.15900X2.74320*%
%ADD11C,1.52400*%
G04:AMPARAMS|DCode=12|XSize=1.16mm|YSize=1.47mm|CornerRadius=0.145mm|HoleSize=0mm|Usage=FLASHONLY|Rotation=90.000|XOffset=0mm|YOffset=0mm|HoleType=Round|Shape=RoundedRectangle|*
%AMROUNDEDRECTD12*
21,1,1.16000,1.18000,0,0,90.0*
21,1,0.87000,1.47000,0,0,90.0*
1,1,0.29000,0.59000,0.43500*
1,1,0.29000,0.59000,-0.43500*
1,1,0.29000,-0.59000,-0.43500*
1,1,0.29000,-0.59000,0.43500*
%
%ADD12ROUNDEDRECTD12*%
%ADD13R,1.49860X3.91160*%
%ADD14R,1.02310X0.35480*%
%ADD15R,1.98120X0.55880*%
%ADD16R,0.50720X0.89610*%
%ADD17R,1.42000X0.92000*%
%ADD18R,0.92000X1.42000*%
%ADD19R,0.76200X1.09220*%
%ADD20R,1.09220X0.76200*%
%ADD21R,3.50000X2.50000*%
%ADD22R,1.70180X0.66040*%
%ADD24R,1.00000X3.50000*%
%ADD25R,1.50000X3.40000*%
%ADD26R,3.50000X1.00000*%
%ADD27R,3.40000X1.50000*%
%ADD28R,1.10000X2.60000*%
%ADD29R,5.70000X5.75000*%
G04:AMPARAMS|DCode=30|XSize=1.16mm|YSize=1.47mm|CornerRadius=0.145mm|HoleSize=0mm|Usage=FLASHONLY|Rotation=0.000|XOffset=0mm|YOffset=0mm|HoleType=Round|Shape=RoundedRectangle|*
%AMROUNDEDRECTD30*
21,1,1.16000,1.18000,0,0,0.0*
21,1,0.87000,1.47000,0,0,0.0*
1,1,0.29000,0.43500,-0.59000*
1,1,0.29000,-0.43500,-0.59000*
1,1,0.29000,-0.43500,0.59000*
1,1,0.29000,0.43500,0.59000*
%
%ADD30ROUNDEDRECTD30*%
D10*
X7787640Y3556000D02*
D03*
X7452360D02*
D03*
X7025640Y2984500D02*
D03*
X6690360D02*
D03*
D11*
X4292600Y152400D02*
D03*
X5105400D02*
D03*
X6731000Y4318000D02*
D03*
X3098800Y152400D02*
D03*
X5080000Y2730500D02*
D03*
X2540000D02*
D03*
X6286500D02*
D03*
X3810000D02*
D03*
X5257800Y7315200D02*
D03*
X1854200Y7391400D02*
D03*
X2717800D02*
D03*
X6731000Y4521200D02*
D03*
X6400800Y152400D02*
D03*
X5562600D02*
D03*
X3733800D02*
D03*
X254000Y5435600D02*
D03*
X2590800Y152400D02*
D03*
X1879600D02*
D03*
D12*
X4064000Y1103500D02*
D03*
X5905500Y4294000D02*
D03*
Y4469000D02*
D03*
X952500Y6461500D02*
D03*
Y6286500D02*
D03*
X1206500D02*
D03*
Y6461500D02*
D03*
X6350000Y5294500D02*
D03*
Y5119500D02*
D03*
X4064000Y928500D02*
D03*
X5334000Y865000D02*
D03*
Y1040000D02*
D03*
X4064000Y468500D02*
D03*
Y293500D02*
D03*
X2844800Y1157100D02*
D03*
Y1332100D02*
D03*
X1587500Y5413000D02*
D03*
Y5588000D02*
D03*
X1282700Y5413000D02*
D03*
Y5588000D02*
D03*
D13*
X4699000Y1616710D02*
D03*
Y2447290D02*
D03*
X5905500Y1616710D02*
D03*
Y2447290D02*
D03*
X3429000Y1616710D02*
D03*
Y2447290D02*
D03*
X2222500Y1616710D02*
D03*
Y2447290D02*
D03*
D14*
X1518565Y6701500D02*
D03*
Y6636500D02*
D03*
Y6571500D02*
D03*
Y6506500D02*
D03*
X1910435D02*
D03*
Y6571500D02*
D03*
Y6636500D02*
D03*
Y6701500D02*
D03*
D15*
X2141220Y5778500D02*
D03*
Y5905500D02*
D03*
Y6032500D02*
D03*
Y6159500D02*
D03*
X1668780D02*
D03*
Y6032500D02*
D03*
Y5905500D02*
D03*
Y5778500D02*
D03*
D16*
X6636000Y6410605D02*
D03*
X6731000D02*
D03*
X6826000D02*
D03*
Y6670395D02*
D03*
X6731000D02*
D03*
X6636000D02*
D03*
D17*
X5524500Y4481500D02*
D03*
Y4281500D02*
D03*
X6032500Y5107000D02*
D03*
Y5307000D02*
D03*
X6286500Y7402500D02*
D03*
Y7202500D02*
D03*
D18*
X2440000Y6350000D02*
D03*
X2640000D02*
D03*
X5337200Y4953000D02*
D03*
X5537200D02*
D03*
X5337200Y5270500D02*
D03*
X5537200D02*
D03*
X535000Y4978400D02*
D03*
X735000D02*
D03*
X7456500Y6667500D02*
D03*
X7656500D02*
D03*
D19*
X547370Y5397500D02*
D03*
X722630D02*
D03*
X7468870Y6286500D02*
D03*
X7644130D02*
D03*
D20*
X5651500Y7214870D02*
D03*
Y7390130D02*
D03*
D21*
X5867000Y6127000D02*
D03*
Y6827000D02*
D03*
D22*
X695570Y6220000D02*
D03*
Y6095000D02*
D03*
Y5970000D02*
D03*
Y5845000D02*
D03*
D24*
X3456000Y6710000D02*
D03*
X3256000D02*
D03*
X3656000D02*
D03*
X3856000D02*
D03*
D25*
X3021000Y7265000D02*
D03*
X4091000D02*
D03*
D26*
X7108500Y4527500D02*
D03*
Y4327500D02*
D03*
D27*
X7683500Y4762500D02*
D03*
Y4092500D02*
D03*
D28*
X735500Y4341000D02*
D03*
X278000Y4336000D02*
D03*
X1548300Y3629800D02*
D03*
X1090800Y3624800D02*
D03*
D29*
X508000Y3556000D02*
D03*
X1320800Y2844800D02*
D03*
D30*
X3278000Y4826000D02*
D03*
X3453000D02*
D03*
X3302000Y4445000D02*
D03*
X3477000D02*
D03*
X2365000Y6604000D02*
D03*
X2540000D02*
D03*
X3278000Y5842000D02*
D03*
X3453000D02*
D03*
X3278000Y5473700D02*
D03*
X3453000D02*
D03*
X6643500Y6096000D02*
D03*
X6818500D02*
D03*
X2627500Y6032500D02*
D03*
X2452500D02*
D03*
X2373500Y5524500D02*
D03*
X2198500D02*
D03*
X6604000Y6921500D02*
D03*
X6779000D02*
D03*
%TF.MD5,6640f148e11ce060b532f17af9c20a9b*%
M02*
