%TF.GenerationSoftware,Altium Limited,Altium Designer,26.3.0 (6)*%
G04 Layer_Color=16711935*
%FSLAX45Y45*%
%MOMM*%
%TF.SameCoordinates,EE7C521D-C6A3-4BB5-8235-418CAF52182B*%
%TF.FilePolarity,Negative*%
%TF.FileFunction,Soldermask,Bot*%
%TF.Part,Single*%
G01*
G75*
%TA.AperFunction,ComponentPad*%
%ADD44C,2.26060*%
%TA.AperFunction,SMDPad,CuDef*%
%ADD72C,1.72720*%
G04:AMPARAMS|DCode=73|XSize=1.3632mm|YSize=1.6732mm|CornerRadius=0.2466mm|HoleSize=0mm|Usage=FLASHONLY|Rotation=90.000|XOffset=0mm|YOffset=0mm|HoleType=Round|Shape=RoundedRectangle|*
%AMROUNDEDRECTD73*
21,1,1.36320,1.18000,0,0,90.0*
21,1,0.87000,1.67320,0,0,90.0*
1,1,0.49320,0.59000,0.43500*
1,1,0.49320,0.59000,-0.43500*
1,1,0.49320,-0.59000,-0.43500*
1,1,0.49320,-0.59000,0.43500*
%
%ADD73ROUNDEDRECTD73*%
%ADD76R,1.12320X1.62320*%
%TA.AperFunction,ComponentPad*%
%ADD85C,2.19320*%
%ADD86C,2.30320*%
%ADD87R,2.30320X2.30320*%
%ADD88R,2.60320X2.60320*%
%ADD89R,2.19320X2.19320*%
%ADD90C,1.72720*%
%ADD91R,1.72720X1.72720*%
%ADD92C,1.00240*%
%ADD93R,1.00240X1.00240*%
%ADD94R,2.30320X2.30320*%
%ADD95C,2.60320*%
%TA.AperFunction,ViaPad*%
%ADD96C,4.01320*%
%ADD97C,0.91440*%
%TA.AperFunction,SMDPad,CuDef*%
G04:AMPARAMS|DCode=98|XSize=1.3132mm|YSize=1.6732mm|CornerRadius=0.24035mm|HoleSize=0mm|Usage=FLASHONLY|Rotation=270.000|XOffset=0mm|YOffset=0mm|HoleType=Round|Shape=RoundedRectangle|*
%AMROUNDEDRECTD98*
21,1,1.31320,1.19250,0,0,270.0*
21,1,0.83250,1.67320,0,0,270.0*
1,1,0.48070,-0.59625,-0.41625*
1,1,0.48070,-0.59625,0.41625*
1,1,0.48070,0.59625,0.41625*
1,1,0.48070,0.59625,-0.41625*
%
%ADD98ROUNDEDRECTD98*%
D44*
X3223500Y762000D02*
D03*
X3619500D02*
D03*
X2032000D02*
D03*
X2428000D02*
D03*
D72*
X3657600Y7289800D02*
D03*
X3860800D02*
D03*
X3454400D02*
D03*
X3225800D02*
D03*
D73*
X5334000Y5818000D02*
D03*
Y5993000D02*
D03*
D76*
X5688000Y3746500D02*
D03*
X5488000D02*
D03*
X4545000D02*
D03*
X4345000D02*
D03*
X3338500D02*
D03*
X3138500D02*
D03*
X2132000D02*
D03*
X1932000D02*
D03*
X6132500D02*
D03*
X5932500D02*
D03*
X4989500D02*
D03*
X4789500D02*
D03*
X3783000D02*
D03*
X3583000D02*
D03*
X2576500D02*
D03*
X2376500D02*
D03*
D85*
X5842000Y3238500D02*
D03*
X5588000D02*
D03*
X4381500D02*
D03*
X4635500D02*
D03*
X3175000D02*
D03*
X3429000D02*
D03*
X1968500D02*
D03*
X2222500D02*
D03*
D86*
X4508500Y1079500D02*
D03*
X5778500D02*
D03*
X4889500Y6604000D02*
D03*
X7112000Y5270500D02*
D03*
D87*
X4889500Y1079500D02*
D03*
X6159500D02*
D03*
X4508500Y6604000D02*
D03*
D88*
X7790000Y2578500D02*
D03*
X7450000D02*
D03*
X6688000Y1880000D02*
D03*
X7028000D02*
D03*
X338000Y2578500D02*
D03*
X678000D02*
D03*
X1100000Y1880000D02*
D03*
X1440000D02*
D03*
D89*
X6096000Y3238500D02*
D03*
X4889500D02*
D03*
X3683000D02*
D03*
X2476500D02*
D03*
D90*
X3853000Y4381500D02*
D03*
Y4635500D02*
D03*
Y4889500D02*
D03*
X4953000Y4635500D02*
D03*
Y4381500D02*
D03*
X3853000Y5461000D02*
D03*
Y5715000D02*
D03*
Y5969000D02*
D03*
X4953000Y5715000D02*
D03*
Y5461000D02*
D03*
D91*
Y4889500D02*
D03*
Y5969000D02*
D03*
D92*
X2224500Y7239000D02*
D03*
D93*
X2349500D02*
D03*
D94*
X7112000Y5651500D02*
D03*
D95*
X7790000Y1231500D02*
D03*
X7450000D02*
D03*
X7028000Y533000D02*
D03*
X6688000D02*
D03*
X678000Y1231500D02*
D03*
X338000D02*
D03*
X1440000Y533000D02*
D03*
X1100000D02*
D03*
D96*
X444500Y444500D02*
D03*
Y7175500D02*
D03*
X7683500Y444500D02*
D03*
Y7175500D02*
D03*
D97*
X5334000Y1270000D02*
D03*
X5791200Y5270500D02*
D03*
Y4953000D02*
D03*
X3073400Y6121400D02*
D03*
X5334000Y635000D02*
D03*
X3365500Y6350000D02*
D03*
X3683000D02*
D03*
X4127500D02*
D03*
X3937000D02*
D03*
X2844800Y927100D02*
D03*
X3238500Y4635500D02*
D03*
X2794000Y3759200D02*
D03*
X4013200D02*
D03*
X5181600D02*
D03*
X6324600D02*
D03*
X6515100Y7213600D02*
D03*
X952500Y6096000D02*
D03*
X4064000Y787400D02*
D03*
X3098800Y4826000D02*
D03*
X5905500Y4127500D02*
D03*
X6667500Y5842000D02*
D03*
X2794000Y6045200D02*
D03*
X2755900Y6654800D02*
D03*
X952500Y6667500D02*
D03*
X6096000Y5588000D02*
D03*
X6985000Y6985000D02*
D03*
X1206500Y6096000D02*
D03*
X5334000Y5588000D02*
D03*
X3275200Y5245100D02*
D03*
X5715000Y5588000D02*
D03*
X2819400Y6350000D02*
D03*
X1587500Y6921500D02*
D03*
X7175500Y6540500D02*
D03*
X6375400Y5588000D02*
D03*
X2565400Y5537200D02*
D03*
X1282700Y5207000D02*
D03*
X317500Y4914900D02*
D03*
X3073400Y6350000D02*
D03*
X4064000Y609600D02*
D03*
X1587500Y5207000D02*
D03*
X7289800Y6324600D02*
D03*
X6375400Y6299200D02*
D03*
X7048500Y6350000D02*
D03*
X2171700Y6654800D02*
D03*
X5334000Y6223000D02*
D03*
X2565400Y5765800D02*
D03*
X5270500Y6921500D02*
D03*
X508000Y6667500D02*
D03*
X1206500D02*
D03*
X1841500Y5588000D02*
D03*
X317500Y5207000D02*
D03*
D98*
X5715000Y5815500D02*
D03*
Y5995500D02*
D03*
X6096000Y5815500D02*
D03*
Y5995500D02*
D03*
%TF.MD5,2340a495abd852bd5b3234adfb5e1f6c*%
M02*
