%TF.GenerationSoftware,Altium Limited,Altium Designer,26.3.0 (6)*%
G04 Layer_Color=32896*
%FSLAX45Y45*%
%MOMM*%
%TF.SameCoordinates,EE7C521D-C6A3-4BB5-8235-418CAF52182B*%
%TF.FilePolarity,Positive*%
%TF.FileFunction,Legend,Bot*%
%TF.Part,Single*%
G01*
G75*
%TA.AperFunction,NonConductor*%
%ADD65C,0.16510*%
%ADD70C,0.25400*%
%ADD71C,0.17780*%
G36*
X3292424Y7436648D02*
X3159176D01*
Y7549352D01*
X3292424D01*
Y7436648D01*
D02*
G37*
G36*
X3495624D02*
X3362376D01*
Y7549352D01*
X3495624D01*
Y7436648D01*
D02*
G37*
G36*
X3902024D02*
X3768776D01*
Y7549352D01*
X3902024D01*
Y7436648D01*
D02*
G37*
G36*
X3698824D02*
X3565576D01*
Y7549352D01*
X3698824D01*
Y7436648D01*
D02*
G37*
%LPC*%
G36*
X3216656Y7519924D02*
X3186684D01*
Y7513955D01*
X3207766D01*
X3209036Y7498588D01*
X3208782D01*
X3208147Y7498715D01*
X3207004Y7498842D01*
X3205607Y7498969D01*
X3205480D01*
X3205226Y7499096D01*
X3204845D01*
X3204210Y7499223D01*
X3202686Y7499350D01*
X3199511D01*
X3197987Y7499096D01*
X3196209Y7498842D01*
X3194050Y7498334D01*
X3191891Y7497572D01*
X3189732Y7496556D01*
X3187827Y7495159D01*
X3187573Y7495032D01*
X3187065Y7494397D01*
X3186303Y7493508D01*
X3185414Y7492238D01*
X3184525Y7490587D01*
X3183763Y7488682D01*
X3183255Y7486396D01*
X3183001Y7483729D01*
Y7519924D01*
D01*
Y7466076D01*
D01*
Y7482967D01*
X3183128Y7482332D01*
X3183255Y7480808D01*
X3183636Y7478903D01*
X3184271Y7476871D01*
X3185287Y7474712D01*
X3186557Y7472553D01*
X3188335Y7470648D01*
X3188589Y7470394D01*
X3189351Y7469886D01*
X3190494Y7469251D01*
X3192145Y7468362D01*
X3194177Y7467473D01*
X3196717Y7466838D01*
X3199638Y7466330D01*
X3202940Y7466076D01*
X3204464D01*
X3205480Y7466203D01*
X3206623D01*
X3207893Y7466330D01*
X3210687Y7466711D01*
X3210814D01*
X3211322Y7466838D01*
X3211957Y7466965D01*
X3212719Y7467219D01*
X3214751Y7467854D01*
X3216656Y7468870D01*
Y7474966D01*
X3216529Y7474839D01*
X3216148Y7474712D01*
X3215640Y7474458D01*
X3214878Y7474077D01*
X3213862Y7473569D01*
X3212846Y7473188D01*
X3211576Y7472807D01*
X3210179Y7472426D01*
X3210052D01*
X3209544Y7472299D01*
X3208782Y7472172D01*
X3207766Y7472045D01*
X3206750Y7471791D01*
X3205480Y7471664D01*
X3202813Y7471537D01*
X3201797D01*
X3200781Y7471664D01*
X3199384Y7471918D01*
X3197987Y7472172D01*
X3196336Y7472680D01*
X3194812Y7473442D01*
X3193415Y7474331D01*
X3193288Y7474458D01*
X3192780Y7474839D01*
X3192272Y7475474D01*
X3191510Y7476490D01*
X3190875Y7477633D01*
X3190240Y7479157D01*
X3189859Y7480935D01*
X3189732Y7482967D01*
Y7483221D01*
Y7483856D01*
X3189859Y7484745D01*
X3190113Y7485888D01*
X3190494Y7487158D01*
X3191129Y7488555D01*
X3191891Y7489825D01*
X3192907Y7490968D01*
X3193034Y7491095D01*
X3193542Y7491476D01*
X3194304Y7491857D01*
X3195320Y7492492D01*
X3196717Y7493000D01*
X3198495Y7493381D01*
X3200654Y7493762D01*
X3203067Y7493889D01*
X3204464D01*
X3205099Y7493762D01*
X3205988D01*
X3207893Y7493508D01*
X3208274D01*
X3208782Y7493381D01*
X3209417Y7493254D01*
X3210814Y7493000D01*
X3212211Y7492746D01*
X3215386Y7494778D01*
X3213481Y7519924D01*
X3216656D01*
D02*
G37*
G36*
X3268599D02*
X3250819D01*
X3250184Y7519797D01*
X3249422D01*
X3247517Y7519543D01*
X3245358Y7519162D01*
X3242945Y7518654D01*
X3240659Y7517892D01*
X3238373Y7516876D01*
X3238246D01*
X3238119Y7516749D01*
X3237357Y7516368D01*
X3236341Y7515606D01*
X3234944Y7514717D01*
X3233547Y7513447D01*
X3232023Y7511923D01*
X3230499Y7510145D01*
X3229229Y7508113D01*
X3229102Y7507859D01*
X3228721Y7507097D01*
X3228213Y7505827D01*
X3227578Y7504176D01*
X3226943Y7502144D01*
X3226435Y7499731D01*
X3226054Y7496937D01*
X3225927Y7493889D01*
Y7519924D01*
D01*
D01*
Y7466711D01*
D01*
Y7492619D01*
X3226054Y7491603D01*
X3226181Y7490587D01*
X3226308Y7489190D01*
X3226562Y7487793D01*
X3226816Y7486269D01*
X3227705Y7482967D01*
X3228340Y7481189D01*
X3228975Y7479538D01*
X3229864Y7477887D01*
X3230880Y7476236D01*
X3232023Y7474839D01*
X3233293Y7473442D01*
X3233420Y7473315D01*
X3233674Y7473188D01*
X3234055Y7472807D01*
X3234690Y7472426D01*
X3235452Y7471918D01*
X3236341Y7471283D01*
X3237357Y7470648D01*
X3238627Y7470140D01*
X3240024Y7469505D01*
X3241548Y7468870D01*
X3243199Y7468235D01*
X3244977Y7467727D01*
X3247009Y7467346D01*
X3249041Y7466965D01*
X3251327Y7466838D01*
X3253740Y7466711D01*
X3225927D01*
X3268599D01*
Y7519924D01*
D02*
G37*
%LPD*%
G36*
X3261995Y7472426D02*
X3253867D01*
X3252724Y7472553D01*
X3251327Y7472807D01*
X3249676Y7473061D01*
X3247898Y7473569D01*
X3245866Y7474204D01*
X3243834Y7475093D01*
X3241929Y7476236D01*
X3239897Y7477633D01*
X3238119Y7479284D01*
X3236468Y7481316D01*
X3235071Y7483856D01*
X3233928Y7486650D01*
X3233293Y7489952D01*
X3233039Y7491730D01*
Y7493635D01*
Y7493762D01*
Y7494143D01*
Y7494651D01*
X3233166Y7495413D01*
Y7496302D01*
X3233293Y7497318D01*
X3233674Y7499604D01*
X3234309Y7502144D01*
X3235325Y7504684D01*
X3236595Y7507224D01*
X3237484Y7508240D01*
X3238373Y7509256D01*
X3238627Y7509510D01*
X3239389Y7510018D01*
X3240532Y7510780D01*
X3242183Y7511796D01*
X3244342Y7512685D01*
X3246882Y7513447D01*
X3249803Y7513955D01*
X3253232Y7514209D01*
X3261995D01*
Y7472426D01*
D02*
G37*
%LPC*%
G36*
X3473196Y7519416D02*
X3430524D01*
D01*
X3455416D01*
X3454781Y7519289D01*
X3454019D01*
X3452114Y7519035D01*
X3449955Y7518654D01*
X3447542Y7518146D01*
X3445256Y7517384D01*
X3442970Y7516368D01*
X3442843D01*
X3442716Y7516241D01*
X3441954Y7515860D01*
X3440938Y7515098D01*
X3439541Y7514209D01*
X3438144Y7512939D01*
X3436620Y7511415D01*
X3435096Y7509637D01*
X3433826Y7507605D01*
X3433699Y7507351D01*
X3433318Y7506589D01*
X3432810Y7505319D01*
X3432175Y7503668D01*
X3431540Y7501636D01*
X3431032Y7499223D01*
X3430651Y7496429D01*
X3430524Y7493381D01*
Y7494143D01*
Y7492111D01*
X3430651Y7491095D01*
X3430778Y7490079D01*
X3430905Y7488682D01*
X3431159Y7487285D01*
X3431413Y7485761D01*
X3432302Y7482459D01*
X3432937Y7480681D01*
X3433572Y7479030D01*
X3434461Y7477379D01*
X3435477Y7475728D01*
X3436620Y7474331D01*
X3437890Y7472934D01*
X3438017Y7472807D01*
X3438271Y7472680D01*
X3438652Y7472299D01*
X3439287Y7471918D01*
X3440049Y7471410D01*
X3440938Y7470775D01*
X3441954Y7470140D01*
X3443224Y7469632D01*
X3444621Y7468997D01*
X3446145Y7468362D01*
X3447796Y7467727D01*
X3449574Y7467219D01*
X3451606Y7466838D01*
X3453638Y7466457D01*
X3455924Y7466330D01*
X3458337Y7466203D01*
X3473196D01*
Y7519416D01*
D02*
G37*
G36*
X3458337Y7466203D02*
X3456057D01*
X3458337D01*
D01*
D02*
G37*
G36*
X3399409Y7519797D02*
X3384804D01*
Y7466203D01*
Y7478268D01*
X3392551D01*
Y7466203D01*
X3398901D01*
Y7478268D01*
X3424428D01*
Y7483856D01*
X3399409Y7519797D01*
D02*
G37*
%LPD*%
G36*
X3466592Y7471918D02*
X3458464D01*
X3457321Y7472045D01*
X3455924Y7472299D01*
X3454273Y7472553D01*
X3452495Y7473061D01*
X3450463Y7473696D01*
X3448431Y7474585D01*
X3446526Y7475728D01*
X3444494Y7477125D01*
X3442716Y7478776D01*
X3441065Y7480808D01*
X3439668Y7483348D01*
X3438525Y7486142D01*
X3437890Y7489444D01*
X3437636Y7491222D01*
Y7493127D01*
Y7493254D01*
Y7493635D01*
Y7494143D01*
X3437763Y7494905D01*
Y7495794D01*
X3437890Y7496810D01*
X3438271Y7499096D01*
X3438906Y7501636D01*
X3439922Y7504176D01*
X3441192Y7506716D01*
X3442081Y7507732D01*
X3442970Y7508748D01*
X3443224Y7509002D01*
X3443986Y7509510D01*
X3445129Y7510272D01*
X3446780Y7511288D01*
X3448939Y7512177D01*
X3451479Y7512939D01*
X3454400Y7513447D01*
X3457829Y7513701D01*
X3466592D01*
Y7471918D01*
D02*
G37*
G36*
X3398901Y7512431D02*
X3399155Y7511796D01*
X3399663Y7510780D01*
X3400298Y7509637D01*
Y7509510D01*
X3400425Y7509383D01*
X3400806Y7508748D01*
X3401441Y7507859D01*
X3402076Y7506970D01*
X3418078Y7484110D01*
X3398901D01*
Y7501001D01*
Y7501128D01*
Y7501636D01*
Y7502398D01*
Y7503287D01*
Y7505319D01*
X3398774Y7507478D01*
Y7507605D01*
Y7507986D01*
Y7508494D01*
X3398647Y7509129D01*
Y7510907D01*
X3398520Y7512685D01*
X3398774D01*
X3398901Y7512431D01*
D02*
G37*
G36*
X3392551Y7484110D02*
X3384804D01*
Y7519797D01*
X3392551D01*
Y7484110D01*
D02*
G37*
%LPC*%
G36*
X3827589Y7519988D02*
X3809428D01*
X3808158Y7519733D01*
X3806381Y7519479D01*
X3804476Y7519098D01*
X3802571Y7518337D01*
X3800666Y7517448D01*
X3798888Y7516178D01*
X3798761Y7516050D01*
X3798253Y7515542D01*
X3797490Y7514654D01*
X3796728Y7513510D01*
X3795966Y7511987D01*
X3795204Y7510209D01*
X3794696Y7508177D01*
X3794570Y7505764D01*
Y7505636D01*
Y7505128D01*
X3794696Y7504239D01*
X3794823Y7503224D01*
X3794951Y7502080D01*
X3795331Y7500810D01*
X3795712Y7499414D01*
X3796348Y7498016D01*
X3796475Y7497889D01*
X3796601Y7497382D01*
X3796983Y7496619D01*
X3797490Y7495730D01*
X3798253Y7494588D01*
X3799014Y7493444D01*
X3799903Y7492175D01*
X3801046Y7490778D01*
X3801173Y7490650D01*
X3801555Y7490143D01*
X3802190Y7489380D01*
X3803078Y7488492D01*
X3804095Y7487349D01*
X3805365Y7486078D01*
X3806634Y7484682D01*
X3808158Y7483158D01*
X3819335Y7472235D01*
Y7471981D01*
X3792410D01*
Y7466012D01*
X3827589D01*
Y7471346D01*
X3813620Y7485570D01*
X3813493Y7485698D01*
X3812985Y7486205D01*
X3812223Y7486968D01*
X3811333Y7487983D01*
X3810191Y7488999D01*
X3809175Y7490269D01*
X3806888Y7492682D01*
X3806761Y7492809D01*
X3806381Y7493190D01*
X3805873Y7493825D01*
X3805365Y7494588D01*
X3804603Y7495604D01*
X3803968Y7496619D01*
X3803332Y7497635D01*
X3802698Y7498779D01*
X3802571Y7498905D01*
X3802443Y7499287D01*
X3802190Y7499922D01*
X3801935Y7500810D01*
X3801681Y7501826D01*
X3801555Y7502969D01*
X3801300Y7504112D01*
Y7505509D01*
Y7505764D01*
Y7506271D01*
X3801427Y7507034D01*
X3801681Y7507922D01*
X3801935Y7509065D01*
X3802443Y7510081D01*
X3803078Y7511225D01*
X3803968Y7512113D01*
X3804095Y7512240D01*
X3804476Y7512494D01*
X3804983Y7512875D01*
X3805745Y7513256D01*
X3806761Y7513638D01*
X3807905Y7514019D01*
X3809175Y7514272D01*
X3810698Y7514399D01*
X3811333D01*
X3812096Y7514272D01*
X3812985D01*
X3814001Y7514019D01*
X3815143Y7513764D01*
X3816413Y7513510D01*
X3817556Y7513003D01*
X3817683D01*
X3818064Y7512748D01*
X3818700Y7512494D01*
X3819335Y7512113D01*
X3820350Y7511605D01*
X3821240Y7510970D01*
X3823526Y7509319D01*
X3827081Y7513764D01*
X3826955Y7513891D01*
X3826573Y7514145D01*
X3825811Y7514654D01*
X3824923Y7515288D01*
X3823906Y7515923D01*
X3822636Y7516685D01*
X3821366Y7517448D01*
X3819843Y7518082D01*
X3819716Y7518209D01*
X3819080Y7518337D01*
X3818318Y7518717D01*
X3817175Y7519098D01*
X3815778Y7519352D01*
X3814254Y7519733D01*
X3812603Y7519860D01*
X3810698Y7519988D01*
X3827589D01*
D02*
G37*
G36*
X3792410D02*
D01*
Y7487983D01*
Y7519988D01*
D01*
D02*
G37*
G36*
X3878390Y7519225D02*
X3835717D01*
D01*
X3860610D01*
X3859974Y7519098D01*
X3859213D01*
X3857308Y7518845D01*
X3855148Y7518464D01*
X3852736Y7517955D01*
X3850449Y7517193D01*
X3848163Y7516178D01*
X3848036D01*
X3847910Y7516050D01*
X3847147Y7515669D01*
X3846131Y7514907D01*
X3844734Y7514019D01*
X3843337Y7512748D01*
X3841813Y7511225D01*
X3840290Y7509446D01*
X3839019Y7507415D01*
X3838893Y7507160D01*
X3838511Y7506399D01*
X3838003Y7505128D01*
X3837368Y7503477D01*
X3836733Y7501445D01*
X3836225Y7499032D01*
X3835845Y7496238D01*
X3835717Y7493190D01*
Y7491920D01*
X3835845Y7490904D01*
X3835971Y7489888D01*
X3836098Y7488492D01*
X3836353Y7487094D01*
X3836606Y7485570D01*
X3837495Y7482268D01*
X3838130Y7480490D01*
X3838766Y7478839D01*
X3839655Y7477188D01*
X3840671Y7475538D01*
X3841813Y7474140D01*
X3843083Y7472743D01*
X3843210Y7472617D01*
X3843465Y7472489D01*
X3843845Y7472109D01*
X3844481Y7471728D01*
X3845242Y7471219D01*
X3846131Y7470584D01*
X3847147Y7469949D01*
X3848418Y7469442D01*
X3849815Y7468807D01*
X3851338Y7468171D01*
X3852990Y7467536D01*
X3854767Y7467028D01*
X3856800Y7466648D01*
X3858831Y7466267D01*
X3861118Y7466139D01*
X3863530Y7466012D01*
X3878390D01*
Y7519225D01*
D02*
G37*
G36*
X3863530Y7466012D02*
X3861251D01*
X3863530D01*
D01*
D02*
G37*
%LPD*%
G36*
X3871786Y7471728D02*
X3863658D01*
X3862515Y7471854D01*
X3861118Y7472109D01*
X3859466Y7472362D01*
X3857688Y7472870D01*
X3855656Y7473505D01*
X3853625Y7474394D01*
X3851720Y7475538D01*
X3849688Y7476935D01*
X3847910Y7478585D01*
X3846258Y7480617D01*
X3844861Y7483158D01*
X3843718Y7485952D01*
X3843083Y7489253D01*
X3842829Y7491031D01*
Y7492937D01*
Y7493063D01*
Y7493444D01*
Y7493953D01*
X3842956Y7494714D01*
Y7495604D01*
X3843083Y7496619D01*
X3843465Y7498905D01*
X3844100Y7501445D01*
X3845116Y7503985D01*
X3846386Y7506525D01*
X3847275Y7507542D01*
X3848163Y7508558D01*
X3848418Y7508812D01*
X3849180Y7509319D01*
X3850323Y7510081D01*
X3851973Y7511097D01*
X3854133Y7511987D01*
X3856672Y7512748D01*
X3859593Y7513256D01*
X3863023Y7513510D01*
X3871786D01*
Y7471728D01*
D02*
G37*
%LPC*%
G36*
X3674999Y7519543D02*
X3657219D01*
X3656584Y7519416D01*
X3655822D01*
X3653917Y7519162D01*
X3651758Y7518781D01*
X3649345Y7518273D01*
X3647059Y7517511D01*
X3644773Y7516495D01*
X3644646D01*
X3644519Y7516368D01*
X3643757Y7515987D01*
X3642741Y7515225D01*
X3641344Y7514336D01*
X3639947Y7513066D01*
X3638423Y7511542D01*
X3636899Y7509764D01*
X3635629Y7507732D01*
X3635502Y7507478D01*
X3635121Y7506716D01*
X3634613Y7505446D01*
X3633978Y7503795D01*
X3633343Y7501763D01*
X3632835Y7499350D01*
X3632454Y7496556D01*
X3632327Y7493508D01*
Y7519543D01*
D01*
D01*
Y7466330D01*
D01*
Y7492238D01*
X3632454Y7491222D01*
X3632581Y7490206D01*
X3632708Y7488809D01*
X3632962Y7487412D01*
X3633216Y7485888D01*
X3634105Y7482586D01*
X3634740Y7480808D01*
X3635375Y7479157D01*
X3636264Y7477506D01*
X3637280Y7475855D01*
X3638423Y7474458D01*
X3639693Y7473061D01*
X3639820Y7472934D01*
X3640074Y7472807D01*
X3640455Y7472426D01*
X3641090Y7472045D01*
X3641852Y7471537D01*
X3642741Y7470902D01*
X3643757Y7470267D01*
X3645027Y7469759D01*
X3646424Y7469124D01*
X3647948Y7468489D01*
X3649599Y7467854D01*
X3651377Y7467346D01*
X3653409Y7466965D01*
X3655441Y7466584D01*
X3657727Y7466457D01*
X3660140Y7466330D01*
X3632327D01*
X3674999D01*
Y7519543D01*
D02*
G37*
G36*
X3607562Y7520305D02*
X3606165D01*
X3604641Y7520051D01*
X3602863Y7519797D01*
X3600831Y7519416D01*
X3598799Y7518654D01*
X3596767Y7517765D01*
X3595116Y7516495D01*
X3594989Y7516368D01*
X3594481Y7515860D01*
X3593846Y7514971D01*
X3593084Y7513955D01*
X3592322Y7512558D01*
X3591687Y7511034D01*
X3591179Y7509129D01*
X3591052Y7507097D01*
Y7506843D01*
Y7506208D01*
X3591179Y7505192D01*
X3591433Y7504049D01*
X3591814Y7502652D01*
X3592322Y7501255D01*
X3593084Y7499858D01*
X3594100Y7498588D01*
X3594227Y7498461D01*
X3594608Y7498080D01*
X3595243Y7497572D01*
X3596132Y7496937D01*
X3597275Y7496175D01*
X3598672Y7495540D01*
X3600323Y7494905D01*
X3602101Y7494397D01*
Y7494016D01*
X3601847D01*
X3601085Y7493889D01*
X3599942Y7493635D01*
X3598418Y7493254D01*
X3596894Y7492746D01*
X3595370Y7491984D01*
X3593846Y7491095D01*
X3592576Y7489952D01*
X3592449Y7489825D01*
X3592068Y7489317D01*
X3591560Y7488682D01*
X3590925Y7487666D01*
X3590417Y7486523D01*
X3589909Y7484999D01*
X3589528Y7483348D01*
X3589401Y7481443D01*
Y7520305D01*
D01*
Y7465695D01*
X3611372D01*
X3612388Y7465822D01*
X3613531D01*
X3614928Y7465949D01*
X3617595Y7466330D01*
X3617722D01*
X3618230Y7466457D01*
X3618865Y7466584D01*
X3619754Y7466838D01*
X3620770Y7467092D01*
X3622040Y7467473D01*
X3624453Y7468489D01*
Y7474585D01*
X3624326Y7474458D01*
X3623818Y7474331D01*
X3623183Y7473950D01*
X3622294Y7473696D01*
X3621278Y7473188D01*
X3620008Y7472807D01*
X3617214Y7471918D01*
X3617087D01*
X3616579Y7471791D01*
X3615817Y7471664D01*
X3614801Y7471537D01*
X3613658Y7471283D01*
X3612388Y7471156D01*
X3609721Y7471029D01*
X3608578D01*
X3607308Y7471156D01*
X3605784Y7471410D01*
X3604133Y7471664D01*
X3602355Y7472172D01*
X3600831Y7472934D01*
X3599434Y7473823D01*
X3599307Y7473950D01*
X3598926Y7474331D01*
X3598418Y7474966D01*
X3597783Y7475855D01*
X3597275Y7476998D01*
X3596767Y7478268D01*
X3596386Y7479792D01*
X3596259Y7481570D01*
Y7481824D01*
Y7482332D01*
X3596513Y7483221D01*
X3596767Y7484364D01*
X3597275Y7485507D01*
X3597910Y7486650D01*
X3598926Y7487793D01*
X3600196Y7488682D01*
X3600323Y7488809D01*
X3600958Y7489063D01*
X3601847Y7489444D01*
X3602990Y7489825D01*
X3604641Y7490206D01*
X3606419Y7490587D01*
X3608578Y7490841D01*
X3611118Y7490968D01*
X3616325D01*
Y7496556D01*
X3609975D01*
X3608832Y7496683D01*
X3607435Y7496937D01*
X3605784Y7497191D01*
X3604133Y7497699D01*
X3602609Y7498461D01*
X3601212Y7499350D01*
X3601085Y7499477D01*
X3600704Y7499858D01*
X3600069Y7500493D01*
X3599434Y7501382D01*
X3598926Y7502398D01*
X3598291Y7503668D01*
X3597910Y7505065D01*
X3597783Y7506716D01*
Y7506843D01*
Y7507351D01*
X3597910Y7507986D01*
X3598164Y7508875D01*
X3598418Y7509891D01*
X3598926Y7510907D01*
X3599561Y7511796D01*
X3600450Y7512685D01*
X3600577Y7512812D01*
X3600958Y7513066D01*
X3601466Y7513320D01*
X3602228Y7513828D01*
X3603244Y7514209D01*
X3604514Y7514463D01*
X3605911Y7514717D01*
X3607435Y7514844D01*
X3608959D01*
X3609975Y7514717D01*
X3611118Y7514590D01*
X3612388Y7514336D01*
X3614801Y7513574D01*
X3614928D01*
X3615309Y7513320D01*
X3615944Y7513066D01*
X3616706Y7512685D01*
X3617595Y7512177D01*
X3618611Y7511669D01*
X3620897Y7510272D01*
X3624199Y7514844D01*
X3624072Y7514971D01*
X3623691Y7515225D01*
X3623056Y7515606D01*
X3622167Y7516114D01*
X3621151Y7516749D01*
X3620008Y7517384D01*
X3618611Y7518019D01*
X3617087Y7518654D01*
X3616833Y7518781D01*
X3616325Y7518908D01*
X3615436Y7519162D01*
X3614293Y7519543D01*
X3612896Y7519797D01*
X3611245Y7520051D01*
X3609467Y7520178D01*
X3607562Y7520305D01*
D02*
G37*
%LPD*%
G36*
X3668395Y7472045D02*
X3660267D01*
X3659124Y7472172D01*
X3657727Y7472426D01*
X3656076Y7472680D01*
X3654298Y7473188D01*
X3652266Y7473823D01*
X3650234Y7474712D01*
X3648329Y7475855D01*
X3646297Y7477252D01*
X3644519Y7478903D01*
X3642868Y7480935D01*
X3641471Y7483475D01*
X3640328Y7486269D01*
X3639693Y7489571D01*
X3639439Y7491349D01*
Y7493254D01*
Y7493381D01*
Y7493762D01*
Y7494270D01*
X3639566Y7495032D01*
Y7495921D01*
X3639693Y7496937D01*
X3640074Y7499223D01*
X3640709Y7501763D01*
X3641725Y7504303D01*
X3642995Y7506843D01*
X3643884Y7507859D01*
X3644773Y7508875D01*
X3645027Y7509129D01*
X3645789Y7509637D01*
X3646932Y7510399D01*
X3648583Y7511415D01*
X3650742Y7512304D01*
X3653282Y7513066D01*
X3656203Y7513574D01*
X3659632Y7513828D01*
X3668395D01*
Y7472045D01*
D02*
G37*
G36*
X3589528Y7479792D02*
X3589655Y7478649D01*
X3589909Y7477379D01*
X3590290Y7475982D01*
X3590798Y7474458D01*
X3591560Y7473061D01*
X3591687Y7472934D01*
X3591941Y7472426D01*
X3592449Y7471791D01*
X3593211Y7471029D01*
X3594100Y7470140D01*
X3595243Y7469251D01*
X3596640Y7468362D01*
X3598291Y7467600D01*
X3598545Y7467473D01*
X3599053Y7467346D01*
X3600069Y7466965D01*
X3601339Y7466711D01*
X3603117Y7466330D01*
X3605022Y7465949D01*
X3607308Y7465822D01*
X3609848Y7465695D01*
X3589401D01*
Y7480681D01*
X3589528Y7479792D01*
D02*
G37*
D65*
X5511800Y3637280D02*
X5664200D01*
X5511800Y3855720D02*
X5664200D01*
X4368800Y3637280D02*
X4521200D01*
X4368800Y3855720D02*
X4521200D01*
X3162300Y3637280D02*
X3314700D01*
X3162300Y3855720D02*
X3314700D01*
X1955800Y3637280D02*
X2108200D01*
X1955800Y3855720D02*
X2108200D01*
X5956300Y3637280D02*
X6108700D01*
X5956300Y3855720D02*
X6108700D01*
X4813300Y3637280D02*
X4965700D01*
X4813300Y3855720D02*
X4965700D01*
X3606800Y3637280D02*
X3759200D01*
X3606800Y3855720D02*
X3759200D01*
X2400300Y3637280D02*
X2552700D01*
X2400300Y3855720D02*
X2552700D01*
X5448300Y5803900D02*
Y6003900D01*
X5217160Y5803900D02*
Y6003900D01*
X5826760Y5803900D02*
Y6007100D01*
X5603240Y5803900D02*
Y6007100D01*
X6207760Y5803900D02*
Y6007100D01*
X5984240Y5803900D02*
Y6007100D01*
D70*
X5596431Y3911617D02*
Y4013184D01*
X5545648D01*
X5528720Y3996256D01*
Y3962400D01*
X5545648Y3945472D01*
X5596431D01*
X5562575D02*
X5528720Y3911617D01*
X5494864D02*
X5461008D01*
X5477936D01*
Y4013184D01*
X5494864Y3996256D01*
X5410224Y3911617D02*
X5376369D01*
X5393297D01*
Y4013184D01*
X5410224Y3996256D01*
X4622759Y3911617D02*
Y4013184D01*
X4571975D01*
X4555048Y3996256D01*
Y3962400D01*
X4571975Y3945472D01*
X4622759D01*
X4588903D02*
X4555048Y3911617D01*
X4521192D02*
X4487336D01*
X4504264D01*
Y4013184D01*
X4521192Y3996256D01*
X4436552D02*
X4419624Y4013184D01*
X4385769D01*
X4368841Y3996256D01*
Y3928544D01*
X4385769Y3911617D01*
X4419624D01*
X4436552Y3928544D01*
Y3996256D01*
X3310439Y3911617D02*
Y4013184D01*
X3259656D01*
X3242728Y3996256D01*
Y3962400D01*
X3259656Y3945472D01*
X3310439D01*
X3276583D02*
X3242728Y3911617D01*
X3208872Y3928544D02*
X3191944Y3911617D01*
X3158088D01*
X3141161Y3928544D01*
Y3996256D01*
X3158088Y4013184D01*
X3191944D01*
X3208872Y3996256D01*
Y3979328D01*
X3191944Y3962400D01*
X3141161D01*
X2091239Y3911617D02*
Y4013184D01*
X2040456D01*
X2023528Y3996256D01*
Y3962400D01*
X2040456Y3945472D01*
X2091239D01*
X2057383D02*
X2023528Y3911617D01*
X1989672Y3996256D02*
X1972744Y4013184D01*
X1938888D01*
X1921961Y3996256D01*
Y3979328D01*
X1938888Y3962400D01*
X1921961Y3945472D01*
Y3928544D01*
X1938888Y3911617D01*
X1972744D01*
X1989672Y3928544D01*
Y3945472D01*
X1972744Y3962400D01*
X1989672Y3979328D01*
Y3996256D01*
X1972744Y3962400D02*
X1938888D01*
X6129839Y3911617D02*
Y4013184D01*
X6079056D01*
X6062128Y3996256D01*
Y3962400D01*
X6079056Y3945472D01*
X6129839D01*
X6095983D02*
X6062128Y3911617D01*
X6028272Y4013184D02*
X5960561D01*
Y3996256D01*
X6028272Y3928544D01*
Y3911617D01*
X5012239D02*
Y4013184D01*
X4961456D01*
X4944528Y3996256D01*
Y3962400D01*
X4961456Y3945472D01*
X5012239D01*
X4978383D02*
X4944528Y3911617D01*
X4842961Y4013184D02*
X4876816Y3996256D01*
X4910672Y3962400D01*
Y3928544D01*
X4893744Y3911617D01*
X4859888D01*
X4842961Y3928544D01*
Y3945472D01*
X4859888Y3962400D01*
X4910672D01*
X3767639Y3911617D02*
Y4013184D01*
X3716856D01*
X3699928Y3996256D01*
Y3962400D01*
X3716856Y3945472D01*
X3767639D01*
X3733783D02*
X3699928Y3911617D01*
X3598361Y4013184D02*
X3666072D01*
Y3962400D01*
X3632216Y3979328D01*
X3615288D01*
X3598361Y3962400D01*
Y3928544D01*
X3615288Y3911617D01*
X3649144D01*
X3666072Y3928544D01*
X2573839Y3911617D02*
Y4013184D01*
X2523056D01*
X2506128Y3996256D01*
Y3962400D01*
X2523056Y3945472D01*
X2573839D01*
X2539983D02*
X2506128Y3911617D01*
X2421488D02*
Y4013184D01*
X2472272Y3962400D01*
X2404561D01*
X5109644Y6138328D02*
X5092716Y6155256D01*
Y6189111D01*
X5109644Y6206039D01*
X5177356D01*
X5194283Y6189111D01*
Y6155256D01*
X5177356Y6138328D01*
X5092716Y6036761D02*
X5109644Y6070616D01*
X5143500Y6104472D01*
X5177356D01*
X5194283Y6087544D01*
Y6053688D01*
X5177356Y6036761D01*
X5160428D01*
X5143500Y6053688D01*
Y6104472D01*
X5490644Y6138328D02*
X5473716Y6155256D01*
Y6189111D01*
X5490644Y6206039D01*
X5558356D01*
X5575283Y6189111D01*
Y6155256D01*
X5558356Y6138328D01*
X5473716Y6036761D02*
Y6104472D01*
X5524500D01*
X5507572Y6070616D01*
Y6053688D01*
X5524500Y6036761D01*
X5558356D01*
X5575283Y6053688D01*
Y6087544D01*
X5558356Y6104472D01*
X5871644Y6138328D02*
X5854716Y6155256D01*
Y6189111D01*
X5871644Y6206039D01*
X5939356D01*
X5956283Y6189111D01*
Y6155256D01*
X5939356Y6138328D01*
X5956283Y6053688D02*
X5854716D01*
X5905500Y6104472D01*
Y6036761D01*
D71*
X7907020Y5036820D02*
Y4952181D01*
X7890092Y4935253D01*
X7856237D01*
X7839309Y4952181D01*
Y5036820D01*
X7737741Y5019892D02*
X7754669Y5036820D01*
X7788525D01*
X7805453Y5019892D01*
Y4952181D01*
X7788525Y4935253D01*
X7754669D01*
X7737741Y4952181D01*
X7686958Y4935253D02*
X7653102D01*
X7636174Y4952181D01*
Y4986036D01*
X7653102Y5002964D01*
X7686958D01*
X7703886Y4986036D01*
Y4952181D01*
X7686958Y4935253D01*
X7602318D02*
Y5002964D01*
X7551535D01*
X7534607Y4986036D01*
Y4935253D01*
X7500751D02*
Y5002964D01*
X7449968D01*
X7433040Y4986036D01*
Y4935253D01*
X7229905Y5019892D02*
X7246833Y5036820D01*
X7280689D01*
X7297617Y5019892D01*
Y5002964D01*
X7280689Y4986036D01*
X7246833D01*
X7229905Y4969108D01*
Y4952181D01*
X7246833Y4935253D01*
X7280689D01*
X7297617Y4952181D01*
X7145266Y4935253D02*
X7179122D01*
X7196049Y4952181D01*
Y4986036D01*
X7179122Y5002964D01*
X7145266D01*
X7128338Y4986036D01*
Y4969108D01*
X7196049D01*
X7094482Y4935253D02*
Y5002964D01*
X7043699D01*
X7026771Y4986036D01*
Y4935253D01*
X6992915D02*
X6959059D01*
X6975987D01*
Y5002964D01*
X6992915D01*
X6891348Y4935253D02*
X6857492D01*
X6840564Y4952181D01*
Y4986036D01*
X6857492Y5002964D01*
X6891348D01*
X6908275Y4986036D01*
Y4952181D01*
X6891348Y4935253D01*
X6806708Y5002964D02*
Y4935253D01*
Y4969108D01*
X6789780Y4986036D01*
X6772853Y5002964D01*
X6755925D01*
X6603574Y5036820D02*
Y4935253D01*
X6552790D01*
X6535862Y4952181D01*
Y5019892D01*
X6552790Y5036820D01*
X6603574D01*
X6451223Y4935253D02*
X6485079D01*
X6502007Y4952181D01*
Y4986036D01*
X6485079Y5002964D01*
X6451223D01*
X6434295Y4986036D01*
Y4969108D01*
X6502007D01*
X6400439Y4935253D02*
X6349656D01*
X6332728Y4952181D01*
X6349656Y4969108D01*
X6383511D01*
X6400439Y4986036D01*
X6383511Y5002964D01*
X6332728D01*
X6298872Y4935253D02*
X6265016D01*
X6281944D01*
Y5002964D01*
X6298872D01*
X6180377Y4901397D02*
X6163449D01*
X6146521Y4918325D01*
Y5002964D01*
X6197305D01*
X6214233Y4986036D01*
Y4952181D01*
X6197305Y4935253D01*
X6146521D01*
X6112665D02*
Y5002964D01*
X6061882D01*
X6044954Y4986036D01*
Y4935253D01*
X7839309Y4673859D02*
X7907020D01*
Y4572292D01*
X7839309D01*
X7907020Y4623075D02*
X7873164D01*
X7737741Y4656931D02*
X7754669Y4673859D01*
X7788525D01*
X7805453Y4656931D01*
Y4589220D01*
X7788525Y4572292D01*
X7754669D01*
X7737741Y4589220D01*
X7636174Y4673859D02*
X7703886D01*
Y4572292D01*
X7636174D01*
X7703886Y4623075D02*
X7670030D01*
X7433040Y4572292D02*
X7500751D01*
X7433040Y4640003D01*
Y4656931D01*
X7449968Y4673859D01*
X7483823D01*
X7500751Y4656931D01*
X7331473Y4673859D02*
X7365328Y4656931D01*
X7399184Y4623075D01*
Y4589220D01*
X7382256Y4572292D01*
X7348400D01*
X7331473Y4589220D01*
Y4606148D01*
X7348400Y4623075D01*
X7399184D01*
X7229905Y4572292D02*
X7297617D01*
X7229905Y4640003D01*
Y4656931D01*
X7246833Y4673859D01*
X7280689D01*
X7297617Y4656931D01*
X7128338Y4572292D02*
X7196049D01*
X7128338Y4640003D01*
Y4656931D01*
X7145266Y4673859D01*
X7179122D01*
X7196049Y4656931D01*
X7094482Y4640003D02*
X7077554D01*
Y4623075D01*
X7094482D01*
Y4640003D01*
Y4589220D02*
X7077554D01*
Y4572292D01*
X7094482D01*
Y4589220D01*
X7907020Y4407739D02*
Y4509306D01*
X7839309Y4407739D01*
Y4509306D01*
X7805453Y4407739D02*
X7771597D01*
X7788525D01*
Y4475451D01*
X7805453D01*
X7653102D02*
X7703886D01*
X7720813Y4458523D01*
Y4424667D01*
X7703886Y4407739D01*
X7653102D01*
X7619246Y4509306D02*
Y4407739D01*
Y4458523D01*
X7602318Y4475451D01*
X7568463D01*
X7551535Y4458523D01*
Y4407739D01*
X7500751D02*
X7466895D01*
X7449968Y4424667D01*
Y4458523D01*
X7466895Y4475451D01*
X7500751D01*
X7517679Y4458523D01*
Y4424667D01*
X7500751Y4407739D01*
X7416112D02*
X7382256D01*
X7399184D01*
Y4509306D01*
X7416112D01*
X7314544Y4475451D02*
X7280689D01*
X7263761Y4458523D01*
Y4407739D01*
X7314544D01*
X7331472Y4424667D01*
X7314544Y4441595D01*
X7263761D01*
X7229905Y4407739D02*
X7179122D01*
X7162194Y4424667D01*
X7179122Y4441595D01*
X7212977D01*
X7229905Y4458523D01*
X7212977Y4475451D01*
X7162194D01*
X7026771Y4407739D02*
Y4475451D01*
X6992915Y4509306D01*
X6959059Y4475451D01*
Y4407739D01*
Y4458523D01*
X7026771D01*
X6925203Y4407739D02*
Y4475451D01*
X6908275D01*
X6891348Y4458523D01*
Y4407739D01*
Y4458523D01*
X6874420Y4475451D01*
X6857492Y4458523D01*
Y4407739D01*
X6806708Y4492379D02*
Y4475451D01*
X6823636D01*
X6789780D01*
X6806708D01*
Y4424667D01*
X6789780Y4407739D01*
X6688213D02*
X6722069D01*
X6738997Y4424667D01*
Y4458523D01*
X6722069Y4475451D01*
X6688213D01*
X6671285Y4458523D01*
Y4441595D01*
X6738997D01*
X6637429Y4475451D02*
Y4407739D01*
Y4441595D01*
X6620502Y4458523D01*
X6603574Y4475451D01*
X6586646D01*
X7907020Y4243187D02*
Y4310898D01*
X7873164Y4344754D01*
X7839309Y4310898D01*
Y4243187D01*
Y4293970D01*
X7907020D01*
X7805453Y4243187D02*
X7771597D01*
X7788525D01*
Y4344754D01*
X7805453D01*
X7670030Y4243187D02*
X7703886D01*
X7720813Y4260114D01*
Y4293970D01*
X7703886Y4310898D01*
X7670030D01*
X7653102Y4293970D01*
Y4277042D01*
X7720813D01*
X7619246Y4243187D02*
X7568463D01*
X7551535Y4260114D01*
X7568463Y4277042D01*
X7602318D01*
X7619246Y4293970D01*
X7602318Y4310898D01*
X7551535D01*
X7517679Y4243187D02*
X7466895D01*
X7449968Y4260114D01*
X7466895Y4277042D01*
X7500751D01*
X7517679Y4293970D01*
X7500751Y4310898D01*
X7449968D01*
X7399184D02*
X7365328D01*
X7348400Y4293970D01*
Y4243187D01*
X7399184D01*
X7416112Y4260114D01*
X7399184Y4277042D01*
X7348400D01*
X7314544Y4243187D02*
Y4310898D01*
X7263761D01*
X7246833Y4293970D01*
Y4243187D01*
X7145266Y4344754D02*
Y4243187D01*
X7196049D01*
X7212977Y4260114D01*
Y4293970D01*
X7196049Y4310898D01*
X7145266D01*
X7111410D02*
Y4243187D01*
Y4277042D01*
X7094482Y4293970D01*
X7077554Y4310898D01*
X7060626D01*
X6992915Y4243187D02*
X6959059D01*
X6942131Y4260114D01*
Y4293970D01*
X6959059Y4310898D01*
X6992915D01*
X7009843Y4293970D01*
Y4260114D01*
X6992915Y4243187D01*
X6806708D02*
Y4344754D01*
X6755925D01*
X6738997Y4327826D01*
Y4293970D01*
X6755925Y4277042D01*
X6806708D01*
X6772853D02*
X6738997Y4243187D01*
X6705141D02*
X6671285D01*
X6688213D01*
Y4310898D01*
X6705141D01*
X6620502Y4209331D02*
Y4310898D01*
X6569718D01*
X6552790Y4293970D01*
Y4260114D01*
X6569718Y4243187D01*
X6620502D01*
X6502007Y4310898D02*
X6468151D01*
X6451223Y4293970D01*
Y4243187D01*
X6502007D01*
X6518934Y4260114D01*
X6502007Y4277042D01*
X6451223D01*
X6417367Y4310898D02*
Y4243187D01*
Y4277042D01*
X6400439Y4293970D01*
X6383511Y4310898D01*
X6366584D01*
X6315800Y4243187D02*
X6281944D01*
X6298872D01*
Y4310898D01*
X6315800D01*
X7907020Y4146346D02*
X7839309D01*
Y4129418D01*
X7907020Y4061706D01*
Y4044778D01*
X7839309D01*
X7788525Y4112490D02*
X7754669D01*
X7737741Y4095562D01*
Y4044778D01*
X7788525D01*
X7805453Y4061706D01*
X7788525Y4078634D01*
X7737741D01*
X7636174Y4112490D02*
X7686958D01*
X7703886Y4095562D01*
Y4061706D01*
X7686958Y4044778D01*
X7636174D01*
X7602318Y4146346D02*
Y4044778D01*
Y4095562D01*
X7585390Y4112490D01*
X7551535D01*
X7534607Y4095562D01*
Y4044778D01*
X7483823Y4112490D02*
X7449968D01*
X7433040Y4095562D01*
Y4044778D01*
X7483823D01*
X7500751Y4061706D01*
X7483823Y4078634D01*
X7433040D01*
X7399184Y4112490D02*
Y4044778D01*
Y4078634D01*
X7382256Y4095562D01*
X7365328Y4112490D01*
X7348400D01*
X7297617D02*
Y4061706D01*
X7280689Y4044778D01*
X7229905D01*
Y4027850D01*
X7246833Y4010923D01*
X7263761D01*
X7229905Y4044778D02*
Y4112490D01*
X7026771Y4129418D02*
X7043699Y4146346D01*
X7077554D01*
X7094482Y4129418D01*
Y4112490D01*
X7077554Y4095562D01*
X7043699D01*
X7026771Y4078634D01*
Y4061706D01*
X7043699Y4044778D01*
X7077554D01*
X7094482Y4061706D01*
X6975987Y4112490D02*
X6942131D01*
X6925204Y4095562D01*
Y4044778D01*
X6975987D01*
X6992915Y4061706D01*
X6975987Y4078634D01*
X6925204D01*
X6891348Y4044778D02*
Y4112490D01*
X6840564D01*
X6823636Y4095562D01*
Y4044778D01*
X6772853Y4129418D02*
Y4112490D01*
X6789780D01*
X6755925D01*
X6772853D01*
Y4061706D01*
X6755925Y4044778D01*
X6705141D02*
X6671285D01*
X6688213D01*
Y4112490D01*
X6705141D01*
X6603574D02*
X6569718D01*
X6552790Y4095562D01*
Y4044778D01*
X6603574D01*
X6620502Y4061706D01*
X6603574Y4078634D01*
X6552790D01*
X6518934Y4044778D02*
Y4112490D01*
X6468151D01*
X6451223Y4095562D01*
Y4044778D01*
X6400439Y4112490D02*
X6366584D01*
X6349656Y4095562D01*
Y4044778D01*
X6400439D01*
X6417367Y4061706D01*
X6400439Y4078634D01*
X6349656D01*
X7907020Y3681817D02*
Y3783385D01*
X7873164Y3749529D01*
X7839309Y3783385D01*
Y3681817D01*
X7737741Y3783385D02*
X7805453D01*
Y3681817D01*
X7737741D01*
X7805453Y3732601D02*
X7771597D01*
X7534607Y3681817D02*
X7602318D01*
X7534607Y3749529D01*
Y3766457D01*
X7551535Y3783385D01*
X7585390D01*
X7602318Y3766457D01*
X7500751Y3698745D02*
X7483823Y3681817D01*
X7449968D01*
X7433040Y3698745D01*
Y3766457D01*
X7449968Y3783385D01*
X7483823D01*
X7500751Y3766457D01*
Y3749529D01*
X7483823Y3732601D01*
X7433040D01*
X7399184Y3749529D02*
X7382256D01*
Y3732601D01*
X7399184D01*
Y3749529D01*
Y3698745D02*
X7382256D01*
Y3681817D01*
X7399184D01*
Y3698745D01*
X7907020Y3517265D02*
Y3584976D01*
X7873164Y3618832D01*
X7839309Y3584976D01*
Y3517265D01*
Y3568048D01*
X7907020D01*
X7737741Y3618832D02*
Y3517265D01*
X7788525D01*
X7805453Y3534193D01*
Y3568048D01*
X7788525Y3584976D01*
X7737741D01*
X7686958D02*
X7653102D01*
X7636174Y3568048D01*
Y3517265D01*
X7686958D01*
X7703886Y3534193D01*
X7686958Y3551120D01*
X7636174D01*
X7602318Y3517265D02*
Y3584976D01*
X7585390D01*
X7568463Y3568048D01*
Y3517265D01*
Y3568048D01*
X7551535Y3584976D01*
X7534607Y3568048D01*
Y3517265D01*
X7399184D02*
Y3584976D01*
X7365328Y3618832D01*
X7331473Y3584976D01*
Y3517265D01*
Y3568048D01*
X7399184D01*
X7229905Y3618832D02*
Y3517265D01*
X7280689D01*
X7297617Y3534193D01*
Y3568048D01*
X7280689Y3584976D01*
X7229905D01*
X7196049D02*
Y3534193D01*
X7179122Y3517265D01*
X7128338D01*
Y3584976D01*
X7094482Y3517265D02*
X7060626D01*
X7077554D01*
Y3584976D01*
X7094482D01*
X7009843Y3618832D02*
Y3517265D01*
X6959059D01*
X6942131Y3534193D01*
Y3551120D01*
Y3568048D01*
X6959059Y3584976D01*
X7009843D01*
X6857492Y3517265D02*
X6891348D01*
X6908275Y3534193D01*
Y3568048D01*
X6891348Y3584976D01*
X6857492D01*
X6840564Y3568048D01*
Y3551120D01*
X6908275D01*
X6806708Y3584976D02*
Y3517265D01*
Y3551120D01*
X6789780Y3568048D01*
X6772853Y3584976D01*
X6755925D01*
X6688213Y3601904D02*
Y3584976D01*
X6705141D01*
X6671285D01*
X6688213D01*
Y3534193D01*
X6671285Y3517265D01*
X7907020Y3352712D02*
Y3454279D01*
X7873164Y3420423D01*
X7839309Y3454279D01*
Y3352712D01*
X7805453D02*
X7771597D01*
X7788525D01*
Y3420423D01*
X7805453D01*
X7653102D02*
X7703886D01*
X7720813Y3403496D01*
Y3369640D01*
X7703886Y3352712D01*
X7653102D01*
X7619246Y3454279D02*
Y3352712D01*
Y3403496D01*
X7602318Y3420423D01*
X7568463D01*
X7551535Y3403496D01*
Y3352712D01*
X7500751Y3420423D02*
X7466895D01*
X7449968Y3403496D01*
Y3352712D01*
X7500751D01*
X7517679Y3369640D01*
X7500751Y3386568D01*
X7449968D01*
X7365328Y3352712D02*
X7399184D01*
X7416112Y3369640D01*
Y3403496D01*
X7399184Y3420423D01*
X7365328D01*
X7348400Y3403496D01*
Y3386568D01*
X7416112D01*
X7314544Y3352712D02*
X7280689D01*
X7297617D01*
Y3454279D01*
X7314544D01*
X7060626D02*
X7128338D01*
Y3403496D01*
X7094482D01*
X7128338D01*
Y3352712D01*
X6975987D02*
X7009843D01*
X7026771Y3369640D01*
Y3403496D01*
X7009843Y3420423D01*
X6975987D01*
X6959059Y3403496D01*
Y3386568D01*
X7026771D01*
X6857492Y3454279D02*
Y3352712D01*
X6908275D01*
X6925203Y3369640D01*
Y3403496D01*
X6908275Y3420423D01*
X6857492D01*
X6772853Y3352712D02*
X6806708D01*
X6823636Y3369640D01*
Y3403496D01*
X6806708Y3420423D01*
X6772853D01*
X6755925Y3403496D01*
Y3386568D01*
X6823636D01*
X6722069Y3420423D02*
Y3352712D01*
Y3386568D01*
X6705141Y3403496D01*
X6688213Y3420423D01*
X6671285D01*
X6620502Y3352712D02*
X6586646D01*
X6603574D01*
Y3454279D01*
X6620502D01*
X6535862Y3352712D02*
X6502007D01*
X6518934D01*
Y3420423D01*
X6535862D01*
X6451223Y3352712D02*
Y3420423D01*
X6400439D01*
X6383511Y3403496D01*
Y3352712D01*
X7907020Y3289727D02*
Y3188159D01*
X7873164Y3222015D01*
X7839309Y3188159D01*
Y3289727D01*
X7754669Y3188159D02*
X7788525D01*
X7805453Y3205087D01*
Y3238943D01*
X7788525Y3255871D01*
X7754669D01*
X7737741Y3238943D01*
Y3222015D01*
X7805453D01*
X7703886Y3188159D02*
X7653102D01*
X7636174Y3205087D01*
X7653102Y3222015D01*
X7686958D01*
X7703886Y3238943D01*
X7686958Y3255871D01*
X7636174D01*
X7602318Y3188159D02*
X7568463D01*
X7585390D01*
Y3289727D01*
X7602318D01*
X7466895Y3188159D02*
X7500751D01*
X7517679Y3205087D01*
Y3238943D01*
X7500751Y3255871D01*
X7466895D01*
X7449968Y3238943D01*
Y3222015D01*
X7517679D01*
X7416112Y3255871D02*
Y3205087D01*
X7399184Y3188159D01*
X7348400D01*
Y3171232D01*
X7365328Y3154304D01*
X7382256D01*
X7348400Y3188159D02*
Y3255871D01*
X7145266Y3289727D02*
X7212977D01*
Y3238943D01*
X7179122D01*
X7212977D01*
Y3188159D01*
X7111410Y3255871D02*
Y3188159D01*
Y3222015D01*
X7094482Y3238943D01*
X7077554Y3255871D01*
X7060626D01*
X6992915D02*
X6959059D01*
X6942131Y3238943D01*
Y3188159D01*
X6992915D01*
X7009843Y3205087D01*
X6992915Y3222015D01*
X6942131D01*
X6908275Y3188159D02*
Y3255871D01*
X6857492D01*
X6840564Y3238943D01*
Y3188159D01*
X6806708D02*
Y3289727D01*
Y3222015D02*
X6755925Y3255871D01*
X6806708Y3222015D02*
X6755925Y3188159D01*
%TF.MD5,7dc6084ef394965526f084339caf04a1*%
M02*
