%TF.GenerationSoftware,Altium Limited,Altium Designer,26.3.0 (6)*%
G04 Layer_Physical_Order=2*
G04 Layer_Color=32768*
%FSLAX45Y45*%
%MOMM*%
%TF.SameCoordinates,EE7C521D-C6A3-4BB5-8235-418CAF52182B*%
%TF.FilePolarity,Negative*%
%TF.FileFunction,Copper,L2,Inr,Plane*%
%TF.Part,Single*%
G01*
G75*
%TA.AperFunction,NonConductor*%
%ADD49C,1.01600*%
%TA.AperFunction,ComponentPad*%
%ADD50C,2.40600*%
%ADD51C,2.41600*%
%ADD52C,2.61600*%
G04:AMPARAMS|DCode=53|XSize=2.914mm|YSize=2.914mm|CornerRadius=0mm|HoleSize=0mm|Usage=FLASHONLY|Rotation=0.000|XOffset=0mm|YOffset=0mm|HoleType=Round|Shape=Relief|Width=0.254mm|Gap=0.254mm|Entries=4|*
%AMTHD53*
7,0,0,2.91400,2.40600,0.25400,45*
%
%ADD53THD53*%
%ADD54C,1.77800*%
G04:AMPARAMS|DCode=55|XSize=2.286mm|YSize=2.286mm|CornerRadius=0mm|HoleSize=0mm|Usage=FLASHONLY|Rotation=0.000|XOffset=0mm|YOffset=0mm|HoleType=Round|Shape=Relief|Width=0.254mm|Gap=0.254mm|Entries=4|*
%AMTHD55*
7,0,0,2.28600,1.77800,0.25400,45*
%
%ADD55THD55*%
%ADD56C,1.51600*%
%ADD57C,2.76860*%
G04:AMPARAMS|DCode=58|XSize=2.924mm|YSize=2.924mm|CornerRadius=0mm|HoleSize=0mm|Usage=FLASHONLY|Rotation=0.000|XOffset=0mm|YOffset=0mm|HoleType=Round|Shape=Relief|Width=0.254mm|Gap=0.254mm|Entries=4|*
%AMTHD58*
7,0,0,2.92400,2.41600,0.25400,45*
%
%ADD58THD58*%
%TA.AperFunction,ViaPad*%
G04:AMPARAMS|DCode=59|XSize=4.699mm|YSize=4.699mm|CornerRadius=0mm|HoleSize=0mm|Usage=FLASHONLY|Rotation=0.000|XOffset=0mm|YOffset=0mm|HoleType=Round|Shape=Relief|Width=0.254mm|Gap=0.254mm|Entries=4|*
%AMTHD59*
7,0,0,4.69900,4.19100,0.25400,45*
%
%ADD59THD59*%
%ADD60C,1.27000*%
G04:AMPARAMS|DCode=61|XSize=1.778mm|YSize=1.778mm|CornerRadius=0mm|HoleSize=0mm|Usage=FLASHONLY|Rotation=0.000|XOffset=0mm|YOffset=0mm|HoleType=Round|Shape=Relief|Width=0.254mm|Gap=0.254mm|Entries=4|*
%AMTHD61*
7,0,0,1.77800,1.27000,0.25400,45*
%
%ADD61THD61*%
D49*
X508000Y7620000D02*
G03*
X0Y7112000I0J-508000D01*
G01*
X8128000Y7112000D02*
G03*
X7620000Y7620000I-508000J0D01*
G01*
Y0D02*
G03*
X8128000Y508000I-0J508000D01*
G01*
X0Y508000D02*
G03*
X507999Y1I507999J0D01*
G01*
X0Y508000D02*
Y7112000D01*
X508000Y7620000D02*
X7620000D01*
X8128000Y508000D02*
Y7112000D01*
X508000Y0D02*
X7620000Y0D01*
D50*
X5842000Y3238500D02*
D03*
X6096000D02*
D03*
X4635500D02*
D03*
X4889500D02*
D03*
X3429000D02*
D03*
X3683000D02*
D03*
X2222500D02*
D03*
X2476500D02*
D03*
D51*
X4508500Y1079500D02*
D03*
X4889500D02*
D03*
X5778500D02*
D03*
X6159500D02*
D03*
X4508500Y6604000D02*
D03*
X7112000Y5651500D02*
D03*
D52*
X7790000Y2578500D02*
D03*
X7450000D02*
D03*
X7790000Y1231500D02*
D03*
X7450000D02*
D03*
X7028000Y533000D02*
D03*
X6688000Y1880000D02*
D03*
X7028000D02*
D03*
X6688000Y533000D02*
D03*
X678000Y1231500D02*
D03*
X338000Y2578500D02*
D03*
X678000D02*
D03*
X338000Y1231500D02*
D03*
X1440000Y533000D02*
D03*
X1100000Y1880000D02*
D03*
X1440000D02*
D03*
X1100000Y533000D02*
D03*
D53*
X5588000Y3238500D02*
D03*
X4381500D02*
D03*
X3175000D02*
D03*
X1968500D02*
D03*
D54*
X3853000Y4381500D02*
D03*
Y4635500D02*
D03*
Y4889500D02*
D03*
X4953000D02*
D03*
Y4381500D02*
D03*
X3853000Y5461000D02*
D03*
Y5715000D02*
D03*
Y5969000D02*
D03*
X4953000D02*
D03*
Y5461000D02*
D03*
D55*
Y4635500D02*
D03*
Y5715000D02*
D03*
D56*
X2224500Y7239000D02*
D03*
X2349500D02*
D03*
D57*
X3223500Y762000D02*
D03*
X3619500D02*
D03*
X2032000D02*
D03*
X2428000D02*
D03*
D58*
X4889500Y6604000D02*
D03*
X7112000Y5270500D02*
D03*
D59*
X444500Y444500D02*
D03*
Y7175500D02*
D03*
X7683500Y444500D02*
D03*
Y7175500D02*
D03*
D60*
X5334000Y1270000D02*
D03*
X5791200Y5270500D02*
D03*
Y4953000D02*
D03*
X3365500Y6350000D02*
D03*
X3683000D02*
D03*
X4127500D02*
D03*
X3937000D02*
D03*
X7289800Y6324600D02*
D03*
X6375400Y6299200D02*
D03*
X7048500Y6350000D02*
D03*
X2171700Y6654800D02*
D03*
X5334000Y6223000D02*
D03*
X2565400Y5765800D02*
D03*
X5270500Y6921500D02*
D03*
X508000Y6667500D02*
D03*
X1206500D02*
D03*
X1841500Y5588000D02*
D03*
X317500Y5207000D02*
D03*
D61*
X3073400Y6121400D02*
D03*
X5334000Y635000D02*
D03*
X2844800Y927100D02*
D03*
X3238500Y4635500D02*
D03*
X2794000Y3759200D02*
D03*
X4013200D02*
D03*
X5181600D02*
D03*
X6324600D02*
D03*
X6515100Y7213600D02*
D03*
X952500Y6096000D02*
D03*
X4064000Y787400D02*
D03*
X3098800Y4826000D02*
D03*
X5905500Y4127500D02*
D03*
X6667500Y5842000D02*
D03*
X2794000Y6045200D02*
D03*
X2755900Y6654800D02*
D03*
X952500Y6667500D02*
D03*
X6096000Y5588000D02*
D03*
X6985000Y6985000D02*
D03*
X1206500Y6096000D02*
D03*
X5334000Y5588000D02*
D03*
X3275200Y5245100D02*
D03*
X5715000Y5588000D02*
D03*
X2819400Y6350000D02*
D03*
X1587500Y6921500D02*
D03*
X7175500Y6540500D02*
D03*
X6375400Y5588000D02*
D03*
X2565400Y5537200D02*
D03*
X1282700Y5207000D02*
D03*
X317500Y4914900D02*
D03*
X3073400Y6350000D02*
D03*
X4064000Y609600D02*
D03*
X1587500Y5207000D02*
D03*
%TF.MD5,b7456ad14553d6a41ccb268bb6c6618e*%
M02*
