%TF.GenerationSoftware,Altium Limited,Altium Designer,26.3.0 (6)*%
G04 Layer_Physical_Order=4*
G04 Layer_Color=16711680*
%FSLAX45Y45*%
%MOMM*%
%TF.SameCoordinates,EE7C521D-C6A3-4BB5-8235-418CAF52182B*%
%TF.FilePolarity,Positive*%
%TF.FileFunction,Copper,L4,Bot,Signal*%
%TF.Part,Single*%
G01*
G75*
%TA.AperFunction,SMDPad,CuDef*%
%ADD11C,1.52400*%
G04:AMPARAMS|DCode=12|XSize=1.16mm|YSize=1.47mm|CornerRadius=0.145mm|HoleSize=0mm|Usage=FLASHONLY|Rotation=90.000|XOffset=0mm|YOffset=0mm|HoleType=Round|Shape=RoundedRectangle|*
%AMROUNDEDRECTD12*
21,1,1.16000,1.18000,0,0,90.0*
21,1,0.87000,1.47000,0,0,90.0*
1,1,0.29000,0.59000,0.43500*
1,1,0.29000,0.59000,-0.43500*
1,1,0.29000,-0.59000,-0.43500*
1,1,0.29000,-0.59000,0.43500*
%
%ADD12ROUNDEDRECTD12*%
%ADD18R,0.92000X1.42000*%
%TA.AperFunction,Conductor*%
%ADD31C,0.76200*%
%ADD33C,0.50800*%
%TA.AperFunction,ComponentPad*%
%ADD35C,1.99000*%
%ADD36C,2.10000*%
%ADD37R,2.10000X2.10000*%
%ADD38R,2.40000X2.40000*%
%ADD39R,1.99000X1.99000*%
%ADD40C,1.52400*%
%ADD41R,1.52400X1.52400*%
%ADD42C,0.85000*%
%ADD43R,0.85000X0.85000*%
%ADD44C,2.26060*%
%ADD45R,2.10000X2.10000*%
%ADD46C,2.40000*%
%TA.AperFunction,ViaPad*%
%ADD47C,3.81000*%
%ADD48C,0.71120*%
%TA.AperFunction,SMDPad,CuDef*%
G04:AMPARAMS|DCode=64|XSize=1.11mm|YSize=1.47mm|CornerRadius=0.13875mm|HoleSize=0mm|Usage=FLASHONLY|Rotation=270.000|XOffset=0mm|YOffset=0mm|HoleType=Round|Shape=RoundedRectangle|*
%AMROUNDEDRECTD64*
21,1,1.11000,1.19250,0,0,270.0*
21,1,0.83250,1.47000,0,0,270.0*
1,1,0.27750,-0.59625,-0.41625*
1,1,0.27750,-0.59625,0.41625*
1,1,0.27750,0.59625,0.41625*
1,1,0.27750,0.59625,-0.41625*
%
%ADD64ROUNDEDRECTD64*%
D11*
X3657600Y7289800D02*
D03*
X3860800D02*
D03*
X3454400D02*
D03*
X3225800D02*
D03*
D12*
X5334000Y5818000D02*
D03*
Y5993000D02*
D03*
D18*
X5688000Y3746500D02*
D03*
X5488000D02*
D03*
X4545000D02*
D03*
X4345000D02*
D03*
X3338500D02*
D03*
X3138500D02*
D03*
X2132000D02*
D03*
X1932000D02*
D03*
X6132500D02*
D03*
X5932500D02*
D03*
X4989500D02*
D03*
X4789500D02*
D03*
X3783000D02*
D03*
X3583000D02*
D03*
X2576500D02*
D03*
X2376500D02*
D03*
D31*
X4508500Y1079500D02*
X5842000Y2413000D01*
Y3238500D01*
X4889500Y1079500D02*
X6388500Y2578500D01*
X7450000D01*
X2781300Y3746500D02*
X2794000Y3759200D01*
X2576500Y3746500D02*
X2781300D01*
X4000500D02*
X4013200Y3759200D01*
X3783000Y3746500D02*
X4000500D01*
X5168900D02*
X5181600Y3759200D01*
X4989500Y3746500D02*
X5168900D01*
X6311900D02*
X6324600Y3759200D01*
X6132500Y3746500D02*
X6311900D01*
X5715000Y5588000D02*
Y5815500D01*
X6096000Y5588000D02*
Y5815500D01*
X5334000Y5588000D02*
Y5818000D01*
Y1270000D02*
X5969000D01*
X6159500Y1079500D01*
X5284147D02*
X5778500D01*
X4903147Y698500D02*
X5284147Y1079500D01*
X4445000Y698500D02*
X4903147D01*
X4254500Y889000D02*
X4445000Y698500D01*
X4254500Y889000D02*
Y1270000D01*
X4635500Y1651000D01*
Y3238500D01*
X5334000Y5993000D02*
Y6223000D01*
X5335250Y5994250D02*
X5713750D01*
X5715000Y5995500D01*
X6096000D01*
X5334000Y5993000D02*
X5335250Y5994250D01*
X3338500Y3746500D02*
X3583000D01*
X2132000D02*
X2376500D01*
Y3529000D02*
Y3746500D01*
Y3529000D02*
X2476500Y3429000D01*
Y3238500D02*
Y3429000D01*
X3683000Y3238500D02*
Y3429000D01*
X3583000Y3529000D02*
X3683000Y3429000D01*
X3583000Y3529000D02*
Y3746500D01*
X5688000D02*
X5932500D01*
X4545000D02*
X4789500D01*
Y3529000D02*
Y3746500D01*
Y3529000D02*
X4889500Y3429000D01*
Y3238500D02*
Y3429000D01*
X1905000Y444500D02*
X3302000D01*
X678000Y1671500D02*
X1905000Y444500D01*
X3302000D02*
X3619500Y762000D01*
X678000Y1671500D02*
Y2578500D01*
X5932500Y3402000D02*
Y3746500D01*
Y3402000D02*
X6096000Y3238500D01*
X3223500Y762000D02*
X3238500Y777000D01*
Y2730500D01*
X3429000Y2921000D01*
Y3238500D01*
X2222500Y2921000D02*
Y3238500D01*
X2032000Y2730500D02*
X2222500Y2921000D01*
X2032000Y762000D02*
Y2730500D01*
D33*
X3225800Y6426200D02*
X3298112Y6353888D01*
X3361612D01*
X3365500Y5972600D02*
X3378200Y5959900D01*
X3365500Y5972600D02*
Y6350000D01*
X3378200Y5588000D02*
Y5959900D01*
X3361612Y6353888D02*
X3365500Y6350000D01*
X3138500Y3900500D02*
X3683000Y4445000D01*
X3454400Y6456381D02*
X3560781Y6350000D01*
X3683000D01*
Y4445000D02*
Y6350000D01*
X4000500Y6477000D02*
X4318000Y6159500D01*
X3860800Y6553200D02*
X3937000Y6477000D01*
X4000500D01*
X4318000Y4572000D02*
Y6159500D01*
X4127500Y3964000D02*
Y6159500D01*
X3657600Y6502400D02*
X3810000Y6350000D01*
X3937000D01*
X4127500Y6159500D01*
X1932000Y4141800D02*
X3378200Y5588000D01*
X1932000Y3746500D02*
Y4141800D01*
X4318000Y4572000D02*
X4953000Y3937000D01*
X4127500Y3964000D02*
X4345000Y3746500D01*
X3860800Y6553200D02*
Y7289800D01*
X3657600Y6502400D02*
Y7289800D01*
X3454400Y6456381D02*
Y7289800D01*
X3225800Y6426200D02*
Y7289800D01*
X3138500Y3746500D02*
Y3900500D01*
X4953000Y3937000D02*
X5297500D01*
X5442400Y3792100D01*
X5488000Y3746500D02*
Y3771500D01*
X5442400Y3792100D02*
X5467400D01*
X5488000Y3771500D01*
D35*
X5842000Y3238500D02*
D03*
X5588000D02*
D03*
X4381500D02*
D03*
X4635500D02*
D03*
X3175000D02*
D03*
X3429000D02*
D03*
X1968500D02*
D03*
X2222500D02*
D03*
D36*
X4508500Y1079500D02*
D03*
X5778500D02*
D03*
X4889500Y6604000D02*
D03*
X7112000Y5270500D02*
D03*
D37*
X4889500Y1079500D02*
D03*
X6159500D02*
D03*
X4508500Y6604000D02*
D03*
D38*
X7790000Y2578500D02*
D03*
X7450000D02*
D03*
X6688000Y1880000D02*
D03*
X7028000D02*
D03*
X338000Y2578500D02*
D03*
X678000D02*
D03*
X1100000Y1880000D02*
D03*
X1440000D02*
D03*
D39*
X6096000Y3238500D02*
D03*
X4889500D02*
D03*
X3683000D02*
D03*
X2476500D02*
D03*
D40*
X3853000Y4381500D02*
D03*
Y4635500D02*
D03*
Y4889500D02*
D03*
X4953000Y4635500D02*
D03*
Y4381500D02*
D03*
X3853000Y5461000D02*
D03*
Y5715000D02*
D03*
Y5969000D02*
D03*
X4953000Y5715000D02*
D03*
Y5461000D02*
D03*
D41*
Y4889500D02*
D03*
Y5969000D02*
D03*
D42*
X2224500Y7239000D02*
D03*
D43*
X2349500D02*
D03*
D44*
X3223500Y762000D02*
D03*
X3619500D02*
D03*
X2032000D02*
D03*
X2428000D02*
D03*
D45*
X7112000Y5651500D02*
D03*
D46*
X7790000Y1231500D02*
D03*
X7450000D02*
D03*
X7028000Y533000D02*
D03*
X6688000D02*
D03*
X678000Y1231500D02*
D03*
X338000D02*
D03*
X1440000Y533000D02*
D03*
X1100000D02*
D03*
D47*
X444500Y444500D02*
D03*
Y7175500D02*
D03*
X7683500Y444500D02*
D03*
Y7175500D02*
D03*
D48*
X5334000Y1270000D02*
D03*
X5791200Y5270500D02*
D03*
Y4953000D02*
D03*
X3073400Y6121400D02*
D03*
X5334000Y635000D02*
D03*
X3365500Y6350000D02*
D03*
X3683000D02*
D03*
X4127500D02*
D03*
X3937000D02*
D03*
X2844800Y927100D02*
D03*
X3238500Y4635500D02*
D03*
X2794000Y3759200D02*
D03*
X4013200D02*
D03*
X5181600D02*
D03*
X6324600D02*
D03*
X6515100Y7213600D02*
D03*
X952500Y6096000D02*
D03*
X4064000Y787400D02*
D03*
X3098800Y4826000D02*
D03*
X5905500Y4127500D02*
D03*
X6667500Y5842000D02*
D03*
X2794000Y6045200D02*
D03*
X2755900Y6654800D02*
D03*
X952500Y6667500D02*
D03*
X6096000Y5588000D02*
D03*
X6985000Y6985000D02*
D03*
X1206500Y6096000D02*
D03*
X5334000Y5588000D02*
D03*
X3275200Y5245100D02*
D03*
X5715000Y5588000D02*
D03*
X2819400Y6350000D02*
D03*
X1587500Y6921500D02*
D03*
X7175500Y6540500D02*
D03*
X6375400Y5588000D02*
D03*
X2565400Y5537200D02*
D03*
X1282700Y5207000D02*
D03*
X317500Y4914900D02*
D03*
X3073400Y6350000D02*
D03*
X4064000Y609600D02*
D03*
X1587500Y5207000D02*
D03*
X7289800Y6324600D02*
D03*
X6375400Y6299200D02*
D03*
X7048500Y6350000D02*
D03*
X2171700Y6654800D02*
D03*
X5334000Y6223000D02*
D03*
X2565400Y5765800D02*
D03*
X5270500Y6921500D02*
D03*
X508000Y6667500D02*
D03*
X1206500D02*
D03*
X1841500Y5588000D02*
D03*
X317500Y5207000D02*
D03*
D64*
X5715000Y5815500D02*
D03*
Y5995500D02*
D03*
X6096000Y5815500D02*
D03*
Y5995500D02*
D03*
%TF.MD5,67b0ddd3dc9f6239c643432967508449*%
M02*
